<?xml version="1.0" encoding="utf-8"?>
<!-- Generator: Adobe Illustrator 22.1.0, SVG Export Plug-In . SVG Version: 6.00 Build 0)  -->
<svg version="1.1" id="Calque_1" xmlns="http://www.w3.org/2000/svg" xmlns:xlink="http://www.w3.org/1999/xlink" x="0px" y="0px"
	 width="3057.1px" height="1906.1px" viewBox="0 0 3057.1 1906.1" style="enable-background:new 0 0 3057.1 1906.1;"
	 xml:space="preserve">
<style type="text/css">
	.st0{fill:#5A2CA0;}
	.st1{fill:#8800AA;}
	.st2{fill:#CC00FF;}
	.st3{fill:#DD55FF;}
	.st4{fill:#FF5599;}
	.st5{fill:#AA0044;}
	.st6{fill:#FF2A2A;}
	.st7{fill:#FF7F2A;}
	.st8{fill:#FF6600;}
	.st9{fill:#FCFC1C;}
	.st10{fill:#FFD42A;}
	.st11{fill:#F0E464;}
	.st12{fill:#DCB834;}
	.st13{fill:#C8FC04;}
	.st14{fill:#00C800;}
	.st15{fill:#00AC00;}
	.st16{fill:#24D000;}
	.st17{fill:#64E000;}
	.st18{fill:#4CD8FC;}
	.st19{fill:#00B8F8;}
	.st20{fill:#0074E4;}
	.st21{fill:#0004C8;}
	.st22{fill:#00006C;}
	.st23{fill-opacity:0.6182;}
	.st24{display:none;fill:url(#SVGID_1_);}
</style>
<g transform="translate(-432.89 378.18)">
	<path d="M435.1-958.5h3054.4c0.3,0,0.5,0.1,0.5,0.1v3061.3c0,0.1-0.2,0.1-0.5,0.1H435.1c-0.3,0-0.5-0.1-0.5-0.1V-958.4
		C434.6-958.5,434.8-958.5,435.1-958.5z"/>
	<g>
		<path class="st0" d="M760.5,542.4h89c0.3,0,0.5,0,0.5,0.1v49.9c0,0-0.2,0.1-0.5,0.1h-89c-0.3,0-0.5,0-0.5-0.1v-49.9
			C760,542.4,760.2,542.4,760.5,542.4z"/>
		<path class="st0" d="M760.5,482.4h89c0.3,0,0.5,0,0.5,0.1v49.9c0,0-0.2,0.1-0.5,0.1h-89c-0.3,0-0.5,0-0.5-0.1v-49.9
			C760,482.4,760.2,482.4,760.5,482.4z"/>
		<path class="st0" d="M760.5,422.4h89c0.3,0,0.5,0,0.5,0.1v49.9c0,0-0.2,0.1-0.5,0.1h-89c-0.3,0-0.5,0-0.5-0.1v-49.9
			C760,422.4,760.2,422.4,760.5,422.4z"/>
		<path class="st0" d="M760.5,362.4h89c0.3,0,0.5,0,0.5,0.1v49.9c0,0-0.2,0.1-0.5,0.1h-89c-0.3,0-0.5,0-0.5-0.1v-49.9
			C760,362.4,760.2,362.4,760.5,362.4z"/>
		<path class="st0" d="M760.5,302.4h89c0.3,0,0.5,0,0.5,0.1v49.9c0,0-0.2,0.1-0.5,0.1h-89c-0.3,0-0.5,0-0.5-0.1v-49.9
			C760,302.4,760.2,302.4,760.5,302.4z"/>
		<path class="st0" d="M760.5,242.4h89c0.3,0,0.5,0,0.5,0.1v49.9c0,0-0.2,0.1-0.5,0.1h-89c-0.3,0-0.5,0-0.5-0.1v-49.9
			C760,242.4,760.2,242.4,760.5,242.4z"/>
		<path class="st0" d="M760.5,182.4h89c0.3,0,0.5,0,0.5,0.1v49.9c0,0-0.2,0.1-0.5,0.1h-89c-0.3,0-0.5,0-0.5-0.1v-49.9
			C760,182.4,760.2,182.4,760.5,182.4z"/>
		<path class="st0" d="M760.5,122.4h89c0.3,0,0.5,0,0.5,0.1v49.9c0,0-0.2,0.1-0.5,0.1h-89c-0.3,0-0.5,0-0.5-0.1v-49.9
			C760,122.4,760.2,122.4,760.5,122.4z"/>
		<path class="st0" d="M760.5,62.4h89c0.3,0,0.5,0,0.5,0.1v49.9c0,0-0.2,0.1-0.5,0.1h-89c-0.3,0-0.5,0-0.5-0.1V62.4
			C760,62.4,760.2,62.4,760.5,62.4z"/>
		<path class="st0" d="M760.5,2.4h89c0.3,0,0.5,0,0.5,0.1v49.9c0,0-0.2,0.1-0.5,0.1h-89c-0.3,0-0.5,0-0.5-0.1V2.4
			C760,2.4,760.2,2.4,760.5,2.4z"/>
		<path class="st1" d="M860.5,542.4h89c0.3,0,0.5,0,0.5,0.1v49.9c0,0-0.2,0.1-0.5,0.1h-89c-0.3,0-0.5,0-0.5-0.1v-49.9
			C860,542.4,860.2,542.4,860.5,542.4z"/>
		<path class="st1" d="M860.5,482.4h89c0.3,0,0.5,0,0.5,0.1v49.9c0,0-0.2,0.1-0.5,0.1h-89c-0.3,0-0.5,0-0.5-0.1v-49.9
			C860,482.4,860.2,482.4,860.5,482.4z"/>
		<path class="st1" d="M860.5,422.4h89c0.3,0,0.5,0,0.5,0.1v49.9c0,0-0.2,0.1-0.5,0.1h-89c-0.3,0-0.5,0-0.5-0.1v-49.9
			C860,422.4,860.2,422.4,860.5,422.4z"/>
		<path class="st1" d="M860.5,362.4h89c0.3,0,0.5,0,0.5,0.1v49.9c0,0-0.2,0.1-0.5,0.1h-89c-0.3,0-0.5,0-0.5-0.1v-49.9
			C860,362.4,860.2,362.4,860.5,362.4z"/>
		<path class="st1" d="M860.5,302.4h89c0.3,0,0.5,0,0.5,0.1v49.9c0,0-0.2,0.1-0.5,0.1h-89c-0.3,0-0.5,0-0.5-0.1v-49.9
			C860,302.4,860.2,302.4,860.5,302.4z"/>
		<path class="st1" d="M860.5,242.4h89c0.3,0,0.5,0,0.5,0.1v49.9c0,0-0.2,0.1-0.5,0.1h-89c-0.3,0-0.5,0-0.5-0.1v-49.9
			C860,242.4,860.2,242.4,860.5,242.4z"/>
		<path class="st1" d="M860.5,182.4h89c0.3,0,0.5,0,0.5,0.1v49.9c0,0-0.2,0.1-0.5,0.1h-89c-0.3,0-0.5,0-0.5-0.1v-49.9
			C860,182.4,860.2,182.4,860.5,182.4z"/>
		<path class="st1" d="M860.5,122.4h89c0.3,0,0.5,0,0.5,0.1v49.9c0,0-0.2,0.1-0.5,0.1h-89c-0.3,0-0.5,0-0.5-0.1v-49.9
			C860,122.4,860.2,122.4,860.5,122.4z"/>
		<path class="st1" d="M860.5,62.4h89c0.3,0,0.5,0,0.5,0.1v49.9c0,0-0.2,0.1-0.5,0.1h-89c-0.3,0-0.5,0-0.5-0.1V62.4
			C860,62.4,860.2,62.4,860.5,62.4z"/>
		<path class="st1" d="M860.5,2.4h89c0.3,0,0.5,0,0.5,0.1v49.9c0,0-0.2,0.1-0.5,0.1h-89c-0.3,0-0.5,0-0.5-0.1V2.4
			C860,2.4,860.2,2.4,860.5,2.4z"/>
		<path class="st1" d="M860.5-57.6h89c0.3,0,0.5,0,0.5,0.1v49.9c0,0-0.2,0.1-0.5,0.1h-89c-0.3,0-0.5,0-0.5-0.1v-49.9
			C860-57.6,860.2-57.6,860.5-57.6z"/>
		<path class="st2" d="M960.5,542.4h89c0.3,0,0.5,0,0.5,0.1v49.9c0,0-0.2,0.1-0.5,0.1h-89c-0.3,0-0.5,0-0.5-0.1v-49.9
			C960,542.4,960.2,542.4,960.5,542.4z"/>
		<path class="st2" d="M960.5,482.4h89c0.3,0,0.5,0,0.5,0.1v49.9c0,0-0.2,0.1-0.5,0.1h-89c-0.3,0-0.5,0-0.5-0.1v-49.9
			C960,482.4,960.2,482.4,960.5,482.4z"/>
		<path class="st2" d="M960.5,422.4h89c0.3,0,0.5,0,0.5,0.1v49.9c0,0-0.2,0.1-0.5,0.1h-89c-0.3,0-0.5,0-0.5-0.1v-49.9
			C960,422.4,960.2,422.4,960.5,422.4z"/>
		<path class="st2" d="M960.5,362.4h89c0.3,0,0.5,0,0.5,0.1v49.9c0,0-0.2,0.1-0.5,0.1h-89c-0.3,0-0.5,0-0.5-0.1v-49.9
			C960,362.4,960.2,362.4,960.5,362.4z"/>
		<path class="st2" d="M960.5,302.4h89c0.3,0,0.5,0,0.5,0.1v49.9c0,0-0.2,0.1-0.5,0.1h-89c-0.3,0-0.5,0-0.5-0.1v-49.9
			C960,302.4,960.2,302.4,960.5,302.4z"/>
		<path class="st2" d="M960.5,242.4h89c0.3,0,0.5,0,0.5,0.1v49.9c0,0-0.2,0.1-0.5,0.1h-89c-0.3,0-0.5,0-0.5-0.1v-49.9
			C960,242.4,960.2,242.4,960.5,242.4z"/>
		<path class="st2" d="M960.5,182.4h89c0.3,0,0.5,0,0.5,0.1v49.9c0,0-0.2,0.1-0.5,0.1h-89c-0.3,0-0.5,0-0.5-0.1v-49.9
			C960,182.4,960.2,182.4,960.5,182.4z"/>
		<path class="st2" d="M960.5,122.4h89c0.3,0,0.5,0,0.5,0.1v49.9c0,0-0.2,0.1-0.5,0.1h-89c-0.3,0-0.5,0-0.5-0.1v-49.9
			C960,122.4,960.2,122.4,960.5,122.4z"/>
		<path class="st2" d="M960.5,62.4h89c0.3,0,0.5,0,0.5,0.1v49.9c0,0-0.2,0.1-0.5,0.1h-89c-0.3,0-0.5,0-0.5-0.1V62.4
			C960,62.4,960.2,62.4,960.5,62.4z"/>
		<path class="st3" d="M1060.5,542.4h89c0.3,0,0.5,0,0.5,0.1v49.9c0,0-0.2,0.1-0.5,0.1h-89c-0.3,0-0.5,0-0.5-0.1v-49.9
			C1060,542.4,1060.2,542.4,1060.5,542.4z"/>
		<path class="st3" d="M1060.5,482.4h89c0.3,0,0.5,0,0.5,0.1v49.9c0,0-0.2,0.1-0.5,0.1h-89c-0.3,0-0.5,0-0.5-0.1v-49.9
			C1060,482.4,1060.2,482.4,1060.5,482.4z"/>
		<path class="st3" d="M1060.5,422.4h89c0.3,0,0.5,0,0.5,0.1v49.9c0,0-0.2,0.1-0.5,0.1h-89c-0.3,0-0.5,0-0.5-0.1v-49.9
			C1060,422.4,1060.2,422.4,1060.5,422.4z"/>
		<path class="st3" d="M1060.5,362.4h89c0.3,0,0.5,0,0.5,0.1v49.9c0,0-0.2,0.1-0.5,0.1h-89c-0.3,0-0.5,0-0.5-0.1v-49.9
			C1060,362.4,1060.2,362.4,1060.5,362.4z"/>
		<path class="st3" d="M1060.5,302.4h89c0.3,0,0.5,0,0.5,0.1v49.9c0,0-0.2,0.1-0.5,0.1h-89c-0.3,0-0.5,0-0.5-0.1v-49.9
			C1060,302.4,1060.2,302.4,1060.5,302.4z"/>
		<path class="st3" d="M1060.5,242.4h89c0.3,0,0.5,0,0.5,0.1v49.9c0,0-0.2,0.1-0.5,0.1h-89c-0.3,0-0.5,0-0.5-0.1v-49.9
			C1060,242.4,1060.2,242.4,1060.5,242.4z"/>
		<path class="st3" d="M1060.5,182.4h89c0.3,0,0.5,0,0.5,0.1v49.9c0,0-0.2,0.1-0.5,0.1h-89c-0.3,0-0.5,0-0.5-0.1v-49.9
			C1060,182.4,1060.2,182.4,1060.5,182.4z"/>
		<path class="st3" d="M1060.5,122.4h89c0.3,0,0.5,0,0.5,0.1v49.9c0,0-0.2,0.1-0.5,0.1h-89c-0.3,0-0.5,0-0.5-0.1v-49.9
			C1060,122.4,1060.2,122.4,1060.5,122.4z"/>
		<path class="st4" d="M1160.5,542.4h89c0.3,0,0.5,0,0.5,0.1v49.9c0,0-0.2,0.1-0.5,0.1h-89c-0.3,0-0.5,0-0.5-0.1v-49.9
			C1160,542.4,1160.2,542.4,1160.5,542.4z"/>
		<path class="st4" d="M1160.5,482.4h89c0.3,0,0.5,0,0.5,0.1v49.9c0,0-0.2,0.1-0.5,0.1h-89c-0.3,0-0.5,0-0.5-0.1v-49.9
			C1160,482.4,1160.2,482.4,1160.5,482.4z"/>
		<path class="st4" d="M1160.5,422.4h89c0.3,0,0.5,0,0.5,0.1v49.9c0,0-0.2,0.1-0.5,0.1h-89c-0.3,0-0.5,0-0.5-0.1v-49.9
			C1160,422.4,1160.2,422.4,1160.5,422.4z"/>
		<path class="st4" d="M1160.5,362.4h89c0.3,0,0.5,0,0.5,0.1v49.9c0,0-0.2,0.1-0.5,0.1h-89c-0.3,0-0.5,0-0.5-0.1v-49.9
			C1160,362.4,1160.2,362.4,1160.5,362.4z"/>
		<path class="st4" d="M1160.5,302.4h89c0.3,0,0.5,0,0.5,0.1v49.9c0,0-0.2,0.1-0.5,0.1h-89c-0.3,0-0.5,0-0.5-0.1v-49.9
			C1160,302.4,1160.2,302.4,1160.5,302.4z"/>
		<path class="st4" d="M1160.5,242.4h89c0.3,0,0.5,0,0.5,0.1v49.9c0,0-0.2,0.1-0.5,0.1h-89c-0.3,0-0.5,0-0.5-0.1v-49.9
			C1160,242.4,1160.2,242.4,1160.5,242.4z"/>
		<path class="st4" d="M1160.5,182.4h89c0.3,0,0.5,0,0.5,0.1v49.9c0,0-0.2,0.1-0.5,0.1h-89c-0.3,0-0.5,0-0.5-0.1v-49.9
			C1160,182.4,1160.2,182.4,1160.5,182.4z"/>
		<path class="st4" d="M1160.5,122.4h89c0.3,0,0.5,0,0.5,0.1v49.9c0,0-0.2,0.1-0.5,0.1h-89c-0.3,0-0.5,0-0.5-0.1v-49.9
			C1160,122.4,1160.2,122.4,1160.5,122.4z"/>
		<path class="st4" d="M1160.5,62.4h89c0.3,0,0.5,0,0.5,0.1v49.9c0,0-0.2,0.1-0.5,0.1h-89c-0.3,0-0.5,0-0.5-0.1V62.4
			C1160,62.4,1160.2,62.4,1160.5,62.4z"/>
		<path class="st4" d="M1160.5,2.4h89c0.3,0,0.5,0,0.5,0.1v49.9c0,0-0.2,0.1-0.5,0.1h-89c-0.3,0-0.5,0-0.5-0.1V2.4
			C1160,2.4,1160.2,2.4,1160.5,2.4z"/>
		<path class="st5" d="M1260.5,542.4h89c0.3,0,0.5,0,0.5,0.1v49.9c0,0-0.2,0.1-0.5,0.1h-89c-0.3,0-0.5,0-0.5-0.1v-49.9
			C1260,542.4,1260.2,542.4,1260.5,542.4z"/>
		<path class="st5" d="M1260.5,482.4h89c0.3,0,0.5,0,0.5,0.1v49.9c0,0-0.2,0.1-0.5,0.1h-89c-0.3,0-0.5,0-0.5-0.1v-49.9
			C1260,482.4,1260.2,482.4,1260.5,482.4z"/>
		<path class="st5" d="M1260.5,422.4h89c0.3,0,0.5,0,0.5,0.1v49.9c0,0-0.2,0.1-0.5,0.1h-89c-0.3,0-0.5,0-0.5-0.1v-49.9
			C1260,422.4,1260.2,422.4,1260.5,422.4z"/>
		<path class="st5" d="M1260.5,362.4h89c0.3,0,0.5,0,0.5,0.1v49.9c0,0-0.2,0.1-0.5,0.1h-89c-0.3,0-0.5,0-0.5-0.1v-49.9
			C1260,362.4,1260.2,362.4,1260.5,362.4z"/>
		<path class="st5" d="M1260.5,302.4h89c0.3,0,0.5,0,0.5,0.1v49.9c0,0-0.2,0.1-0.5,0.1h-89c-0.3,0-0.5,0-0.5-0.1v-49.9
			C1260,302.4,1260.2,302.4,1260.5,302.4z"/>
		<path class="st5" d="M1260.5,242.4h89c0.3,0,0.5,0,0.5,0.1v49.9c0,0-0.2,0.1-0.5,0.1h-89c-0.3,0-0.5,0-0.5-0.1v-49.9
			C1260,242.4,1260.2,242.4,1260.5,242.4z"/>
		<path class="st5" d="M1260.5,182.4h89c0.3,0,0.5,0,0.5,0.1v49.9c0,0-0.2,0.1-0.5,0.1h-89c-0.3,0-0.5,0-0.5-0.1v-49.9
			C1260,182.4,1260.2,182.4,1260.5,182.4z"/>
		<path class="st5" d="M1260.5,122.4h89c0.3,0,0.5,0,0.5,0.1v49.9c0,0-0.2,0.1-0.5,0.1h-89c-0.3,0-0.5,0-0.5-0.1v-49.9
			C1260,122.4,1260.2,122.4,1260.5,122.4z"/>
		<path class="st5" d="M1260.5,62.4h89c0.3,0,0.5,0,0.5,0.1v49.9c0,0-0.2,0.1-0.5,0.1h-89c-0.3,0-0.5,0-0.5-0.1V62.4
			C1260,62.4,1260.2,62.4,1260.5,62.4z"/>
		<path class="st6" d="M1360.5,542.4h89c0.3,0,0.5,0,0.5,0.1v49.9c0,0-0.2,0.1-0.5,0.1h-89c-0.3,0-0.5,0-0.5-0.1v-49.9
			C1360,542.4,1360.2,542.4,1360.5,542.4z"/>
		<path class="st6" d="M1360.5,482.4h89c0.3,0,0.5,0,0.5,0.1v49.9c0,0-0.2,0.1-0.5,0.1h-89c-0.3,0-0.5,0-0.5-0.1v-49.9
			C1360,482.4,1360.2,482.4,1360.5,482.4z"/>
		<path class="st6" d="M1360.5,422.4h89c0.3,0,0.5,0,0.5,0.1v49.9c0,0-0.2,0.1-0.5,0.1h-89c-0.3,0-0.5,0-0.5-0.1v-49.9
			C1360,422.4,1360.2,422.4,1360.5,422.4z"/>
		<path class="st6" d="M1360.5,362.4h89c0.3,0,0.5,0,0.5,0.1v49.9c0,0-0.2,0.1-0.5,0.1h-89c-0.3,0-0.5,0-0.5-0.1v-49.9
			C1360,362.4,1360.2,362.4,1360.5,362.4z"/>
		<path class="st6" d="M1360.5,302.4h89c0.3,0,0.5,0,0.5,0.1v49.9c0,0-0.2,0.1-0.5,0.1h-89c-0.3,0-0.5,0-0.5-0.1v-49.9
			C1360,302.4,1360.2,302.4,1360.5,302.4z"/>
		<path class="st6" d="M1360.5,242.4h89c0.3,0,0.5,0,0.5,0.1v49.9c0,0-0.2,0.1-0.5,0.1h-89c-0.3,0-0.5,0-0.5-0.1v-49.9
			C1360,242.4,1360.2,242.4,1360.5,242.4z"/>
		<path class="st6" d="M1360.5,182.4h89c0.3,0,0.5,0,0.5,0.1v49.9c0,0-0.2,0.1-0.5,0.1h-89c-0.3,0-0.5,0-0.5-0.1v-49.9
			C1360,182.4,1360.2,182.4,1360.5,182.4z"/>
		<path class="st6" d="M1360.5,122.4h89c0.3,0,0.5,0,0.5,0.1v49.9c0,0-0.2,0.1-0.5,0.1h-89c-0.3,0-0.5,0-0.5-0.1v-49.9
			C1360,122.4,1360.2,122.4,1360.5,122.4z"/>
		<path class="st6" d="M1460.5,542.4h89c0.3,0,0.5,0,0.5,0.1v49.9c0,0-0.2,0.1-0.5,0.1h-89c-0.3,0-0.5,0-0.5-0.1v-49.9
			C1460,542.4,1460.2,542.4,1460.5,542.4z"/>
		<path class="st6" d="M1460.5,482.4h89c0.3,0,0.5,0,0.5,0.1v49.9c0,0-0.2,0.1-0.5,0.1h-89c-0.3,0-0.5,0-0.5-0.1v-49.9
			C1460,482.4,1460.2,482.4,1460.5,482.4z"/>
		<path class="st6" d="M1460.5,422.4h89c0.3,0,0.5,0,0.5,0.1v49.9c0,0-0.2,0.1-0.5,0.1h-89c-0.3,0-0.5,0-0.5-0.1v-49.9
			C1460,422.4,1460.2,422.4,1460.5,422.4z"/>
		<path class="st6" d="M1460.5,362.4h89c0.3,0,0.5,0,0.5,0.1v49.9c0,0-0.2,0.1-0.5,0.1h-89c-0.3,0-0.5,0-0.5-0.1v-49.9
			C1460,362.4,1460.2,362.4,1460.5,362.4z"/>
		<path class="st6" d="M1460.5,302.4h89c0.3,0,0.5,0,0.5,0.1v49.9c0,0-0.2,0.1-0.5,0.1h-89c-0.3,0-0.5,0-0.5-0.1v-49.9
			C1460,302.4,1460.2,302.4,1460.5,302.4z"/>
		<path class="st6" d="M1460.5,242.4h89c0.3,0,0.5,0,0.5,0.1v49.9c0,0-0.2,0.1-0.5,0.1h-89c-0.3,0-0.5,0-0.5-0.1v-49.9
			C1460,242.4,1460.2,242.4,1460.5,242.4z"/>
		<path class="st6" d="M1460.5,182.4h89c0.3,0,0.5,0,0.5,0.1v49.9c0,0-0.2,0.1-0.5,0.1h-89c-0.3,0-0.5,0-0.5-0.1v-49.9
			C1460,182.4,1460.2,182.4,1460.5,182.4z"/>
		<path class="st6" d="M1460.5,122.4h89c0.3,0,0.5,0,0.5,0.1v49.9c0,0-0.2,0.1-0.5,0.1h-89c-0.3,0-0.5,0-0.5-0.1v-49.9
			C1460,122.4,1460.2,122.4,1460.5,122.4z"/>
		<path class="st6" d="M1460.5,62.4h89c0.3,0,0.5,0,0.5,0.1v49.9c0,0-0.2,0.1-0.5,0.1h-89c-0.3,0-0.5,0-0.5-0.1V62.4
			C1460,62.4,1460.2,62.4,1460.5,62.4z"/>
		<path class="st7" d="M1560.5,542.4h89c0.3,0,0.5,0,0.5,0.1v49.9c0,0-0.2,0.1-0.5,0.1h-89c-0.3,0-0.5,0-0.5-0.1v-49.9
			C1560,542.4,1560.2,542.4,1560.5,542.4z"/>
		<path class="st7" d="M1560.5,482.4h89c0.3,0,0.5,0,0.5,0.1v49.9c0,0-0.2,0.1-0.5,0.1h-89c-0.3,0-0.5,0-0.5-0.1v-49.9
			C1560,482.4,1560.2,482.4,1560.5,482.4z"/>
		<path class="st7" d="M1560.5,422.4h89c0.3,0,0.5,0,0.5,0.1v49.9c0,0-0.2,0.1-0.5,0.1h-89c-0.3,0-0.5,0-0.5-0.1v-49.9
			C1560,422.4,1560.2,422.4,1560.5,422.4z"/>
		<path class="st7" d="M1560.5,362.4h89c0.3,0,0.5,0,0.5,0.1v49.9c0,0-0.2,0.1-0.5,0.1h-89c-0.3,0-0.5,0-0.5-0.1v-49.9
			C1560,362.4,1560.2,362.4,1560.5,362.4z"/>
		<path class="st7" d="M1560.5,302.4h89c0.3,0,0.5,0,0.5,0.1v49.9c0,0-0.2,0.1-0.5,0.1h-89c-0.3,0-0.5,0-0.5-0.1v-49.9
			C1560,302.4,1560.2,302.4,1560.5,302.4z"/>
		<path class="st7" d="M1560.5,242.4h89c0.3,0,0.5,0,0.5,0.1v49.9c0,0-0.2,0.1-0.5,0.1h-89c-0.3,0-0.5,0-0.5-0.1v-49.9
			C1560,242.4,1560.2,242.4,1560.5,242.4z"/>
		<path class="st7" d="M1560.5,182.4h89c0.3,0,0.5,0,0.5,0.1v49.9c0,0-0.2,0.1-0.5,0.1h-89c-0.3,0-0.5,0-0.5-0.1v-49.9
			C1560,182.4,1560.2,182.4,1560.5,182.4z"/>
		<path class="st7" d="M1560.5,122.4h89c0.3,0,0.5,0,0.5,0.1v49.9c0,0-0.2,0.1-0.5,0.1h-89c-0.3,0-0.5,0-0.5-0.1v-49.9
			C1560,122.4,1560.2,122.4,1560.5,122.4z"/>
		<path class="st7" d="M1560.5,62.4h89c0.3,0,0.5,0,0.5,0.1v49.9c0,0-0.2,0.1-0.5,0.1h-89c-0.3,0-0.5,0-0.5-0.1V62.4
			C1560,62.4,1560.2,62.4,1560.5,62.4z"/>
		<path class="st7" d="M1560.5,2.4h89c0.3,0,0.5,0,0.5,0.1v49.9c0,0-0.2,0.1-0.5,0.1h-89c-0.3,0-0.5,0-0.5-0.1V2.4
			C1560,2.4,1560.2,2.4,1560.5,2.4z"/>
		<path class="st8" d="M1660.5,542.4h89c0.3,0,0.5,0,0.5,0.1v49.9c0,0-0.2,0.1-0.5,0.1h-89c-0.3,0-0.5,0-0.5-0.1v-49.9
			C1660,542.4,1660.2,542.4,1660.5,542.4z"/>
		<path class="st8" d="M1660.5,482.4h89c0.3,0,0.5,0,0.5,0.1v49.9c0,0-0.2,0.1-0.5,0.1h-89c-0.3,0-0.5,0-0.5-0.1v-49.9
			C1660,482.4,1660.2,482.4,1660.5,482.4z"/>
		<path class="st8" d="M1660.5,422.4h89c0.3,0,0.5,0,0.5,0.1v49.9c0,0-0.2,0.1-0.5,0.1h-89c-0.3,0-0.5,0-0.5-0.1v-49.9
			C1660,422.4,1660.2,422.4,1660.5,422.4z"/>
		<path class="st8" d="M1660.5,362.4h89c0.3,0,0.5,0,0.5,0.1v49.9c0,0-0.2,0.1-0.5,0.1h-89c-0.3,0-0.5,0-0.5-0.1v-49.9
			C1660,362.4,1660.2,362.4,1660.5,362.4z"/>
		<path class="st8" d="M1660.5,302.4h89c0.3,0,0.5,0,0.5,0.1v49.9c0,0-0.2,0.1-0.5,0.1h-89c-0.3,0-0.5,0-0.5-0.1v-49.9
			C1660,302.4,1660.2,302.4,1660.5,302.4z"/>
		<path class="st8" d="M1660.5,242.4h89c0.3,0,0.5,0,0.5,0.1v49.9c0,0-0.2,0.1-0.5,0.1h-89c-0.3,0-0.5,0-0.5-0.1v-49.9
			C1660,242.4,1660.2,242.4,1660.5,242.4z"/>
		<path class="st8" d="M1660.5,182.4h89c0.3,0,0.5,0,0.5,0.1v49.9c0,0-0.2,0.1-0.5,0.1h-89c-0.3,0-0.5,0-0.5-0.1v-49.9
			C1660,182.4,1660.2,182.4,1660.5,182.4z"/>
		<path class="st8" d="M1660.5,122.4h89c0.3,0,0.5,0,0.5,0.1v49.9c0,0-0.2,0.1-0.5,0.1h-89c-0.3,0-0.5,0-0.5-0.1v-49.9
			C1660,122.4,1660.2,122.4,1660.5,122.4z"/>
		<path class="st8" d="M1660.5,62.4h89c0.3,0,0.5,0,0.5,0.1v49.9c0,0-0.2,0.1-0.5,0.1h-89c-0.3,0-0.5,0-0.5-0.1V62.4
			C1660,62.4,1660.2,62.4,1660.5,62.4z"/>
		<path class="st8" d="M1660.5,2.4h89c0.3,0,0.5,0,0.5,0.1v49.9c0,0-0.2,0.1-0.5,0.1h-89c-0.3,0-0.5,0-0.5-0.1V2.4
			C1660,2.4,1660.2,2.4,1660.5,2.4z"/>
		<path class="st8" d="M1660.5-57.6h89c0.3,0,0.5,0,0.5,0.1v49.9c0,0-0.2,0.1-0.5,0.1h-89c-0.3,0-0.5,0-0.5-0.1v-49.9
			C1660-57.6,1660.2-57.6,1660.5-57.6z"/>
		<path class="st8" d="M1660.5-117.6h89c0.3,0,0.5,0,0.5,0.1v49.9c0,0-0.2,0.1-0.5,0.1h-89c-0.3,0-0.5,0-0.5-0.1v-49.9
			C1660-117.6,1660.2-117.6,1660.5-117.6z"/>
		<path class="st9" d="M1760.5,542.4h89c0.3,0,0.5,0,0.5,0.1v49.9c0,0-0.2,0.1-0.5,0.1h-89c-0.3,0-0.5,0-0.5-0.1v-49.9
			C1760,542.4,1760.2,542.4,1760.5,542.4z"/>
		<path class="st9" d="M1760.5,482.4h89c0.3,0,0.5,0,0.5,0.1v49.9c0,0-0.2,0.1-0.5,0.1h-89c-0.3,0-0.5,0-0.5-0.1v-49.9
			C1760,482.4,1760.2,482.4,1760.5,482.4z"/>
		<path class="st9" d="M1760.5,422.4h89c0.3,0,0.5,0,0.5,0.1v49.9c0,0-0.2,0.1-0.5,0.1h-89c-0.3,0-0.5,0-0.5-0.1v-49.9
			C1760,422.4,1760.2,422.4,1760.5,422.4z"/>
		<path class="st9" d="M1760.5,362.4h89c0.3,0,0.5,0,0.5,0.1v49.9c0,0-0.2,0.1-0.5,0.1h-89c-0.3,0-0.5,0-0.5-0.1v-49.9
			C1760,362.4,1760.2,362.4,1760.5,362.4z"/>
		<path class="st9" d="M1760.5,302.4h89c0.3,0,0.5,0,0.5,0.1v49.9c0,0-0.2,0.1-0.5,0.1h-89c-0.3,0-0.5,0-0.5-0.1v-49.9
			C1760,302.4,1760.2,302.4,1760.5,302.4z"/>
		<path class="st9" d="M1760.5,242.4h89c0.3,0,0.5,0,0.5,0.1v49.9c0,0-0.2,0.1-0.5,0.1h-89c-0.3,0-0.5,0-0.5-0.1v-49.9
			C1760,242.4,1760.2,242.4,1760.5,242.4z"/>
		<path class="st9" d="M1760.5,182.4h89c0.3,0,0.5,0,0.5,0.1v49.9c0,0-0.2,0.1-0.5,0.1h-89c-0.3,0-0.5,0-0.5-0.1v-49.9
			C1760,182.4,1760.2,182.4,1760.5,182.4z"/>
		<path class="st9" d="M1760.5,122.4h89c0.3,0,0.5,0,0.5,0.1v49.9c0,0-0.2,0.1-0.5,0.1h-89c-0.3,0-0.5,0-0.5-0.1v-49.9
			C1760,122.4,1760.2,122.4,1760.5,122.4z"/>
		<path class="st9" d="M1760.5,62.4h89c0.3,0,0.5,0,0.5,0.1v49.9c0,0-0.2,0.1-0.5,0.1h-89c-0.3,0-0.5,0-0.5-0.1V62.4
			C1760,62.4,1760.2,62.4,1760.5,62.4z"/>
		<path class="st9" d="M1760.5,2.4h89c0.3,0,0.5,0,0.5,0.1v49.9c0,0-0.2,0.1-0.5,0.1h-89c-0.3,0-0.5,0-0.5-0.1V2.4
			C1760,2.4,1760.2,2.4,1760.5,2.4z"/>
		<path class="st10" d="M1860.5,542.4h89c0.3,0,0.5,0,0.5,0.1v49.9c0,0-0.2,0.1-0.5,0.1h-89c-0.3,0-0.5,0-0.5-0.1v-49.9
			C1860,542.4,1860.2,542.4,1860.5,542.4z"/>
		<path class="st10" d="M1860.5,482.4h89c0.3,0,0.5,0,0.5,0.1v49.9c0,0-0.2,0.1-0.5,0.1h-89c-0.3,0-0.5,0-0.5-0.1v-49.9
			C1860,482.4,1860.2,482.4,1860.5,482.4z"/>
		<path class="st10" d="M1860.5,422.4h89c0.3,0,0.5,0,0.5,0.1v49.9c0,0-0.2,0.1-0.5,0.1h-89c-0.3,0-0.5,0-0.5-0.1v-49.9
			C1860,422.4,1860.2,422.4,1860.5,422.4z"/>
		<path class="st10" d="M1860.5,362.4h89c0.3,0,0.5,0,0.5,0.1v49.9c0,0-0.2,0.1-0.5,0.1h-89c-0.3,0-0.5,0-0.5-0.1v-49.9
			C1860,362.4,1860.2,362.4,1860.5,362.4z"/>
		<path class="st10" d="M1860.5,302.4h89c0.3,0,0.5,0,0.5,0.1v49.9c0,0-0.2,0.1-0.5,0.1h-89c-0.3,0-0.5,0-0.5-0.1v-49.9
			C1860,302.4,1860.2,302.4,1860.5,302.4z"/>
		<path class="st10" d="M1860.5,242.4h89c0.3,0,0.5,0,0.5,0.1v49.9c0,0-0.2,0.1-0.5,0.1h-89c-0.3,0-0.5,0-0.5-0.1v-49.9
			C1860,242.4,1860.2,242.4,1860.5,242.4z"/>
		<path class="st10" d="M1860.5,182.4h89c0.3,0,0.5,0,0.5,0.1v49.9c0,0-0.2,0.1-0.5,0.1h-89c-0.3,0-0.5,0-0.5-0.1v-49.9
			C1860,182.4,1860.2,182.4,1860.5,182.4z"/>
		<path class="st10" d="M1860.5,122.4h89c0.3,0,0.5,0,0.5,0.1v49.9c0,0-0.2,0.1-0.5,0.1h-89c-0.3,0-0.5,0-0.5-0.1v-49.9
			C1860,122.4,1860.2,122.4,1860.5,122.4z"/>
		<path class="st10" d="M1860.5,62.4h89c0.3,0,0.5,0,0.5,0.1v49.9c0,0-0.2,0.1-0.5,0.1h-89c-0.3,0-0.5,0-0.5-0.1V62.4
			C1860,62.4,1860.2,62.4,1860.5,62.4z"/>
		<path class="st10" d="M1860.5,2.4h89c0.3,0,0.5,0,0.5,0.1v49.9c0,0-0.2,0.1-0.5,0.1h-89c-0.3,0-0.5,0-0.5-0.1V2.4
			C1860,2.4,1860.2,2.4,1860.5,2.4z"/>
		<path class="st10" d="M1860.5-57.6h89c0.3,0,0.5,0,0.5,0.1v49.9c0,0-0.2,0.1-0.5,0.1h-89c-0.3,0-0.5,0-0.5-0.1v-49.9
			C1860-57.6,1860.2-57.6,1860.5-57.6z"/>
		<path class="st11" d="M1960.5,542.4h89c0.3,0,0.5,0,0.5,0.1v49.9c0,0-0.2,0.1-0.5,0.1h-89c-0.3,0-0.5,0-0.5-0.1v-49.9
			C1960,542.4,1960.2,542.4,1960.5,542.4z"/>
		<path class="st11" d="M1960.5,482.4h89c0.3,0,0.5,0,0.5,0.1v49.9c0,0-0.2,0.1-0.5,0.1h-89c-0.3,0-0.5,0-0.5-0.1v-49.9
			C1960,482.4,1960.2,482.4,1960.5,482.4z"/>
		<path class="st11" d="M1960.5,422.4h89c0.3,0,0.5,0,0.5,0.1v49.9c0,0-0.2,0.1-0.5,0.1h-89c-0.3,0-0.5,0-0.5-0.1v-49.9
			C1960,422.4,1960.2,422.4,1960.5,422.4z"/>
		<path class="st11" d="M1960.5,362.4h89c0.3,0,0.5,0,0.5,0.1v49.9c0,0-0.2,0.1-0.5,0.1h-89c-0.3,0-0.5,0-0.5-0.1v-49.9
			C1960,362.4,1960.2,362.4,1960.5,362.4z"/>
		<path class="st11" d="M1960.5,302.4h89c0.3,0,0.5,0,0.5,0.1v49.9c0,0-0.2,0.1-0.5,0.1h-89c-0.3,0-0.5,0-0.5-0.1v-49.9
			C1960,302.4,1960.2,302.4,1960.5,302.4z"/>
		<path class="st11" d="M1960.5,242.4h89c0.3,0,0.5,0,0.5,0.1v49.9c0,0-0.2,0.1-0.5,0.1h-89c-0.3,0-0.5,0-0.5-0.1v-49.9
			C1960,242.4,1960.2,242.4,1960.5,242.4z"/>
		<path class="st11" d="M1960.5,182.4h89c0.3,0,0.5,0,0.5,0.1v49.9c0,0-0.2,0.1-0.5,0.1h-89c-0.3,0-0.5,0-0.5-0.1v-49.9
			C1960,182.4,1960.2,182.4,1960.5,182.4z"/>
		<path class="st11" d="M1960.5,122.4h89c0.3,0,0.5,0,0.5,0.1v49.9c0,0-0.2,0.1-0.5,0.1h-89c-0.3,0-0.5,0-0.5-0.1v-49.9
			C1960,122.4,1960.2,122.4,1960.5,122.4z"/>
		<path class="st12" d="M2060.5,542.4h89c0.3,0,0.5,0,0.5,0.1v49.9c0,0-0.2,0.1-0.5,0.1h-89c-0.3,0-0.5,0-0.5-0.1v-49.9
			C2060,542.4,2060.2,542.4,2060.5,542.4z"/>
		<path class="st12" d="M2060.5,482.4h89c0.3,0,0.5,0,0.5,0.1v49.9c0,0-0.2,0.1-0.5,0.1h-89c-0.3,0-0.5,0-0.5-0.1v-49.9
			C2060,482.4,2060.2,482.4,2060.5,482.4z"/>
		<path class="st12" d="M2060.5,422.4h89c0.3,0,0.5,0,0.5,0.1v49.9c0,0-0.2,0.1-0.5,0.1h-89c-0.3,0-0.5,0-0.5-0.1v-49.9
			C2060,422.4,2060.2,422.4,2060.5,422.4z"/>
		<path class="st12" d="M2060.5,362.4h89c0.3,0,0.5,0,0.5,0.1v49.9c0,0-0.2,0.1-0.5,0.1h-89c-0.3,0-0.5,0-0.5-0.1v-49.9
			C2060,362.4,2060.2,362.4,2060.5,362.4z"/>
		<path class="st12" d="M2060.5,302.4h89c0.3,0,0.5,0,0.5,0.1v49.9c0,0-0.2,0.1-0.5,0.1h-89c-0.3,0-0.5,0-0.5-0.1v-49.9
			C2060,302.4,2060.2,302.4,2060.5,302.4z"/>
		<path class="st12" d="M2060.5,242.4h89c0.3,0,0.5,0,0.5,0.1v49.9c0,0-0.2,0.1-0.5,0.1h-89c-0.3,0-0.5,0-0.5-0.1v-49.9
			C2060,242.4,2060.2,242.4,2060.5,242.4z"/>
		<path class="st12" d="M2060.5,182.4h89c0.3,0,0.5,0,0.5,0.1v49.9c0,0-0.2,0.1-0.5,0.1h-89c-0.3,0-0.5,0-0.5-0.1v-49.9
			C2060,182.4,2060.2,182.4,2060.5,182.4z"/>
		<path class="st12" d="M2060.5,122.4h89c0.3,0,0.5,0,0.5,0.1v49.9c0,0-0.2,0.1-0.5,0.1h-89c-0.3,0-0.5,0-0.5-0.1v-49.9
			C2060,122.4,2060.2,122.4,2060.5,122.4z"/>
		<path class="st12" d="M2060.5,62.4h89c0.3,0,0.5,0,0.5,0.1v49.9c0,0-0.2,0.1-0.5,0.1h-89c-0.3,0-0.5,0-0.5-0.1V62.4
			C2060,62.4,2060.2,62.4,2060.5,62.4z"/>
		<path class="st12" d="M2060.5,2.4h89c0.3,0,0.5,0,0.5,0.1v49.9c0,0-0.2,0.1-0.5,0.1h-89c-0.3,0-0.5,0-0.5-0.1V2.4
			C2060,2.4,2060.2,2.4,2060.5,2.4z"/>
		<path class="st13" d="M2160.5,542.4h89c0.3,0,0.5,0,0.5,0.1v49.9c0,0-0.2,0.1-0.5,0.1h-89c-0.3,0-0.5,0-0.5-0.1v-49.9
			C2160,542.4,2160.2,542.4,2160.5,542.4z"/>
		<path class="st13" d="M2160.5,482.4h89c0.3,0,0.5,0,0.5,0.1v49.9c0,0-0.2,0.1-0.5,0.1h-89c-0.3,0-0.5,0-0.5-0.1v-49.9
			C2160,482.4,2160.2,482.4,2160.5,482.4z"/>
		<path class="st13" d="M2160.5,422.4h89c0.3,0,0.5,0,0.5,0.1v49.9c0,0-0.2,0.1-0.5,0.1h-89c-0.3,0-0.5,0-0.5-0.1v-49.9
			C2160,422.4,2160.2,422.4,2160.5,422.4z"/>
		<path class="st13" d="M2160.5,362.4h89c0.3,0,0.5,0,0.5,0.1v49.9c0,0-0.2,0.1-0.5,0.1h-89c-0.3,0-0.5,0-0.5-0.1v-49.9
			C2160,362.4,2160.2,362.4,2160.5,362.4z"/>
		<path class="st13" d="M2160.5,302.4h89c0.3,0,0.5,0,0.5,0.1v49.9c0,0-0.2,0.1-0.5,0.1h-89c-0.3,0-0.5,0-0.5-0.1v-49.9
			C2160,302.4,2160.2,302.4,2160.5,302.4z"/>
		<path class="st13" d="M2160.5,242.4h89c0.3,0,0.5,0,0.5,0.1v49.9c0,0-0.2,0.1-0.5,0.1h-89c-0.3,0-0.5,0-0.5-0.1v-49.9
			C2160,242.4,2160.2,242.4,2160.5,242.4z"/>
		<path class="st13" d="M2160.5,182.4h89c0.3,0,0.5,0,0.5,0.1v49.9c0,0-0.2,0.1-0.5,0.1h-89c-0.3,0-0.5,0-0.5-0.1v-49.9
			C2160,182.4,2160.2,182.4,2160.5,182.4z"/>
		<path class="st13" d="M2160.5,122.4h89c0.3,0,0.5,0,0.5,0.1v49.9c0,0-0.2,0.1-0.5,0.1h-89c-0.3,0-0.5,0-0.5-0.1v-49.9
			C2160,122.4,2160.2,122.4,2160.5,122.4z"/>
		<path class="st13" d="M2160.5,62.4h89c0.3,0,0.5,0,0.5,0.1v49.9c0,0-0.2,0.1-0.5,0.1h-89c-0.3,0-0.5,0-0.5-0.1V62.4
			C2160,62.4,2160.2,62.4,2160.5,62.4z"/>
		<path class="st13" d="M2160.5,2.4h89c0.3,0,0.5,0,0.5,0.1v49.9c0,0-0.2,0.1-0.5,0.1h-89c-0.3,0-0.5,0-0.5-0.1V2.4
			C2160,2.4,2160.2,2.4,2160.5,2.4z"/>
		<path class="st13" d="M2160.5-57.6h89c0.3,0,0.5,0,0.5,0.1v49.9c0,0-0.2,0.1-0.5,0.1h-89c-0.3,0-0.5,0-0.5-0.1v-49.9
			C2160-57.6,2160.2-57.6,2160.5-57.6z"/>
		<path class="st13" d="M2160.5-117.6h89c0.3,0,0.5,0,0.5,0.1v49.9c0,0-0.2,0.1-0.5,0.1h-89c-0.3,0-0.5,0-0.5-0.1v-49.9
			C2160-117.6,2160.2-117.6,2160.5-117.6z"/>
		<path class="st14" d="M2260.5,542.4h89c0.3,0,0.5,0,0.5,0.1v49.9c0,0-0.2,0.1-0.5,0.1h-89c-0.3,0-0.5,0-0.5-0.1v-49.9
			C2260,542.4,2260.2,542.4,2260.5,542.4z"/>
		<path class="st14" d="M2260.5,482.4h89c0.3,0,0.5,0,0.5,0.1v49.9c0,0-0.2,0.1-0.5,0.1h-89c-0.3,0-0.5,0-0.5-0.1v-49.9
			C2260,482.4,2260.2,482.4,2260.5,482.4z"/>
		<path class="st14" d="M2260.5,422.4h89c0.3,0,0.5,0,0.5,0.1v49.9c0,0-0.2,0.1-0.5,0.1h-89c-0.3,0-0.5,0-0.5-0.1v-49.9
			C2260,422.4,2260.2,422.4,2260.5,422.4z"/>
		<path class="st14" d="M2260.5,362.4h89c0.3,0,0.5,0,0.5,0.1v49.9c0,0-0.2,0.1-0.5,0.1h-89c-0.3,0-0.5,0-0.5-0.1v-49.9
			C2260,362.4,2260.2,362.4,2260.5,362.4z"/>
		<path class="st14" d="M2260.5,302.4h89c0.3,0,0.5,0,0.5,0.1v49.9c0,0-0.2,0.1-0.5,0.1h-89c-0.3,0-0.5,0-0.5-0.1v-49.9
			C2260,302.4,2260.2,302.4,2260.5,302.4z"/>
		<path class="st14" d="M2260.5,242.4h89c0.3,0,0.5,0,0.5,0.1v49.9c0,0-0.2,0.1-0.5,0.1h-89c-0.3,0-0.5,0-0.5-0.1v-49.9
			C2260,242.4,2260.2,242.4,2260.5,242.4z"/>
		<path class="st14" d="M2260.5,182.4h89c0.3,0,0.5,0,0.5,0.1v49.9c0,0-0.2,0.1-0.5,0.1h-89c-0.3,0-0.5,0-0.5-0.1v-49.9
			C2260,182.4,2260.2,182.4,2260.5,182.4z"/>
		<path class="st14" d="M2260.5,122.4h89c0.3,0,0.5,0,0.5,0.1v49.9c0,0-0.2,0.1-0.5,0.1h-89c-0.3,0-0.5,0-0.5-0.1v-49.9
			C2260,122.4,2260.2,122.4,2260.5,122.4z"/>
		<path class="st14" d="M2260.5,62.4h89c0.3,0,0.5,0,0.5,0.1v49.9c0,0-0.2,0.1-0.5,0.1h-89c-0.3,0-0.5,0-0.5-0.1V62.4
			C2260,62.4,2260.2,62.4,2260.5,62.4z"/>
		<path class="st15" d="M2360.5,542.4h89c0.3,0,0.5,0,0.5,0.1v49.9c0,0-0.2,0.1-0.5,0.1h-89c-0.3,0-0.5,0-0.5-0.1v-49.9
			C2360,542.4,2360.2,542.4,2360.5,542.4z"/>
		<path class="st15" d="M2360.5,482.4h89c0.3,0,0.5,0,0.5,0.1v49.9c0,0-0.2,0.1-0.5,0.1h-89c-0.3,0-0.5,0-0.5-0.1v-49.9
			C2360,482.4,2360.2,482.4,2360.5,482.4z"/>
		<path class="st15" d="M2360.5,422.4h89c0.3,0,0.5,0,0.5,0.1v49.9c0,0-0.2,0.1-0.5,0.1h-89c-0.3,0-0.5,0-0.5-0.1v-49.9
			C2360,422.4,2360.2,422.4,2360.5,422.4z"/>
		<path class="st15" d="M2360.5,362.4h89c0.3,0,0.5,0,0.5,0.1v49.9c0,0-0.2,0.1-0.5,0.1h-89c-0.3,0-0.5,0-0.5-0.1v-49.9
			C2360,362.4,2360.2,362.4,2360.5,362.4z"/>
		<path class="st15" d="M2360.5,302.4h89c0.3,0,0.5,0,0.5,0.1v49.9c0,0-0.2,0.1-0.5,0.1h-89c-0.3,0-0.5,0-0.5-0.1v-49.9
			C2360,302.4,2360.2,302.4,2360.5,302.4z"/>
		<path class="st15" d="M2360.5,242.4h89c0.3,0,0.5,0,0.5,0.1v49.9c0,0-0.2,0.1-0.5,0.1h-89c-0.3,0-0.5,0-0.5-0.1v-49.9
			C2360,242.4,2360.2,242.4,2360.5,242.4z"/>
		<path class="st15" d="M2360.5,182.4h89c0.3,0,0.5,0,0.5,0.1v49.9c0,0-0.2,0.1-0.5,0.1h-89c-0.3,0-0.5,0-0.5-0.1v-49.9
			C2360,182.4,2360.2,182.4,2360.5,182.4z"/>
		<path class="st15" d="M2360.5,122.4h89c0.3,0,0.5,0,0.5,0.1v49.9c0,0-0.2,0.1-0.5,0.1h-89c-0.3,0-0.5,0-0.5-0.1v-49.9
			C2360,122.4,2360.2,122.4,2360.5,122.4z"/>
		<path class="st15" d="M2360.5,62.4h89c0.3,0,0.5,0,0.5,0.1v49.9c0,0-0.2,0.1-0.5,0.1h-89c-0.3,0-0.5,0-0.5-0.1V62.4
			C2360,62.4,2360.2,62.4,2360.5,62.4z"/>
		<path class="st15" d="M2360.5,2.4h89c0.3,0,0.5,0,0.5,0.1v49.9c0,0-0.2,0.1-0.5,0.1h-89c-0.3,0-0.5,0-0.5-0.1V2.4
			C2360,2.4,2360.2,2.4,2360.5,2.4z"/>
		<path class="st16" d="M2460.5,542.4h89c0.3,0,0.5,0,0.5,0.1v49.9c0,0-0.2,0.1-0.5,0.1h-89c-0.3,0-0.5,0-0.5-0.1v-49.9
			C2460,542.4,2460.2,542.4,2460.5,542.4z"/>
		<path class="st16" d="M2460.5,482.4h89c0.3,0,0.5,0,0.5,0.1v49.9c0,0-0.2,0.1-0.5,0.1h-89c-0.3,0-0.5,0-0.5-0.1v-49.9
			C2460,482.4,2460.2,482.4,2460.5,482.4z"/>
		<path class="st16" d="M2460.5,422.4h89c0.3,0,0.5,0,0.5,0.1v49.9c0,0-0.2,0.1-0.5,0.1h-89c-0.3,0-0.5,0-0.5-0.1v-49.9
			C2460,422.4,2460.2,422.4,2460.5,422.4z"/>
		<path class="st16" d="M2460.5,362.4h89c0.3,0,0.5,0,0.5,0.1v49.9c0,0-0.2,0.1-0.5,0.1h-89c-0.3,0-0.5,0-0.5-0.1v-49.9
			C2460,362.4,2460.2,362.4,2460.5,362.4z"/>
		<path class="st16" d="M2460.5,302.4h89c0.3,0,0.5,0,0.5,0.1v49.9c0,0-0.2,0.1-0.5,0.1h-89c-0.3,0-0.5,0-0.5-0.1v-49.9
			C2460,302.4,2460.2,302.4,2460.5,302.4z"/>
		<path class="st16" d="M2460.5,242.4h89c0.3,0,0.5,0,0.5,0.1v49.9c0,0-0.2,0.1-0.5,0.1h-89c-0.3,0-0.5,0-0.5-0.1v-49.9
			C2460,242.4,2460.2,242.4,2460.5,242.4z"/>
		<path class="st16" d="M2460.5,182.4h89c0.3,0,0.5,0,0.5,0.1v49.9c0,0-0.2,0.1-0.5,0.1h-89c-0.3,0-0.5,0-0.5-0.1v-49.9
			C2460,182.4,2460.2,182.4,2460.5,182.4z"/>
		<path class="st16" d="M2460.5,122.4h89c0.3,0,0.5,0,0.5,0.1v49.9c0,0-0.2,0.1-0.5,0.1h-89c-0.3,0-0.5,0-0.5-0.1v-49.9
			C2460,122.4,2460.2,122.4,2460.5,122.4z"/>
		<path class="st16" d="M2460.5,62.4h89c0.3,0,0.5,0,0.5,0.1v49.9c0,0-0.2,0.1-0.5,0.1h-89c-0.3,0-0.5,0-0.5-0.1V62.4
			C2460,62.4,2460.2,62.4,2460.5,62.4z"/>
		<path class="st16" d="M2460.5,2.4h89c0.3,0,0.5,0,0.5,0.1v49.9c0,0-0.2,0.1-0.5,0.1h-89c-0.3,0-0.5,0-0.5-0.1V2.4
			C2460,2.4,2460.2,2.4,2460.5,2.4z"/>
		<path class="st16" d="M2460.5-57.6h89c0.3,0,0.5,0,0.5,0.1v49.9c0,0-0.2,0.1-0.5,0.1h-89c-0.3,0-0.5,0-0.5-0.1v-49.9
			C2460-57.6,2460.2-57.6,2460.5-57.6z"/>
		<path class="st16" d="M2460.5-117.6h89c0.3,0,0.5,0,0.5,0.1v49.9c0,0-0.2,0.1-0.5,0.1h-89c-0.3,0-0.5,0-0.5-0.1v-49.9
			C2460-117.6,2460.2-117.6,2460.5-117.6z"/>
		<path class="st17" d="M2560.5,542.4h89c0.3,0,0.5,0,0.5,0.1v49.9c0,0-0.2,0.1-0.5,0.1h-89c-0.3,0-0.5,0-0.5-0.1v-49.9
			C2560,542.4,2560.2,542.4,2560.5,542.4z"/>
		<path class="st17" d="M2560.5,482.4h89c0.3,0,0.5,0,0.5,0.1v49.9c0,0-0.2,0.1-0.5,0.1h-89c-0.3,0-0.5,0-0.5-0.1v-49.9
			C2560,482.4,2560.2,482.4,2560.5,482.4z"/>
		<path class="st17" d="M2560.5,422.4h89c0.3,0,0.5,0,0.5,0.1v49.9c0,0-0.2,0.1-0.5,0.1h-89c-0.3,0-0.5,0-0.5-0.1v-49.9
			C2560,422.4,2560.2,422.4,2560.5,422.4z"/>
		<path class="st17" d="M2560.5,362.4h89c0.3,0,0.5,0,0.5,0.1v49.9c0,0-0.2,0.1-0.5,0.1h-89c-0.3,0-0.5,0-0.5-0.1v-49.9
			C2560,362.4,2560.2,362.4,2560.5,362.4z"/>
		<path class="st17" d="M2560.5,302.4h89c0.3,0,0.5,0,0.5,0.1v49.9c0,0-0.2,0.1-0.5,0.1h-89c-0.3,0-0.5,0-0.5-0.1v-49.9
			C2560,302.4,2560.2,302.4,2560.5,302.4z"/>
		<path class="st17" d="M2560.5,242.4h89c0.3,0,0.5,0,0.5,0.1v49.9c0,0-0.2,0.1-0.5,0.1h-89c-0.3,0-0.5,0-0.5-0.1v-49.9
			C2560,242.4,2560.2,242.4,2560.5,242.4z"/>
		<path class="st17" d="M2560.5,182.4h89c0.3,0,0.5,0,0.5,0.1v49.9c0,0-0.2,0.1-0.5,0.1h-89c-0.3,0-0.5,0-0.5-0.1v-49.9
			C2560,182.4,2560.2,182.4,2560.5,182.4z"/>
		<path class="st17" d="M2560.5,122.4h89c0.3,0,0.5,0,0.5,0.1v49.9c0,0-0.2,0.1-0.5,0.1h-89c-0.3,0-0.5,0-0.5-0.1v-49.9
			C2560,122.4,2560.2,122.4,2560.5,122.4z"/>
		<path class="st17" d="M2560.5,62.4h89c0.3,0,0.5,0,0.5,0.1v49.9c0,0-0.2,0.1-0.5,0.1h-89c-0.3,0-0.5,0-0.5-0.1V62.4
			C2560,62.4,2560.2,62.4,2560.5,62.4z"/>
		<path class="st17" d="M2560.5,2.4h89c0.3,0,0.5,0,0.5,0.1v49.9c0,0-0.2,0.1-0.5,0.1h-89c-0.3,0-0.5,0-0.5-0.1V2.4
			C2560,2.4,2560.2,2.4,2560.5,2.4z"/>
		<path class="st17" d="M2560.5-57.6h89c0.3,0,0.5,0,0.5,0.1v49.9c0,0-0.2,0.1-0.5,0.1h-89c-0.3,0-0.5,0-0.5-0.1v-49.9
			C2560-57.6,2560.2-57.6,2560.5-57.6z"/>
		<path class="st18" d="M2660.5,542.4h89c0.3,0,0.5,0,0.5,0.1v49.9c0,0-0.2,0.1-0.5,0.1h-89c-0.3,0-0.5,0-0.5-0.1v-49.9
			C2660,542.4,2660.2,542.4,2660.5,542.4z"/>
		<path class="st18" d="M2660.5,482.4h89c0.3,0,0.5,0,0.5,0.1v49.9c0,0-0.2,0.1-0.5,0.1h-89c-0.3,0-0.5,0-0.5-0.1v-49.9
			C2660,482.4,2660.2,482.4,2660.5,482.4z"/>
		<path class="st18" d="M2660.5,422.4h89c0.3,0,0.5,0,0.5,0.1v49.9c0,0-0.2,0.1-0.5,0.1h-89c-0.3,0-0.5,0-0.5-0.1v-49.9
			C2660,422.4,2660.2,422.4,2660.5,422.4z"/>
		<path class="st18" d="M2660.5,362.4h89c0.3,0,0.5,0,0.5,0.1v49.9c0,0-0.2,0.1-0.5,0.1h-89c-0.3,0-0.5,0-0.5-0.1v-49.9
			C2660,362.4,2660.2,362.4,2660.5,362.4z"/>
		<path class="st18" d="M2660.5,302.4h89c0.3,0,0.5,0,0.5,0.1v49.9c0,0-0.2,0.1-0.5,0.1h-89c-0.3,0-0.5,0-0.5-0.1v-49.9
			C2660,302.4,2660.2,302.4,2660.5,302.4z"/>
		<path class="st18" d="M2660.5,242.4h89c0.3,0,0.5,0,0.5,0.1v49.9c0,0-0.2,0.1-0.5,0.1h-89c-0.3,0-0.5,0-0.5-0.1v-49.9
			C2660,242.4,2660.2,242.4,2660.5,242.4z"/>
		<path class="st18" d="M2660.5,182.4h89c0.3,0,0.5,0,0.5,0.1v49.9c0,0-0.2,0.1-0.5,0.1h-89c-0.3,0-0.5,0-0.5-0.1v-49.9
			C2660,182.4,2660.2,182.4,2660.5,182.4z"/>
		<path class="st18" d="M2660.5,122.4h89c0.3,0,0.5,0,0.5,0.1v49.9c0,0-0.2,0.1-0.5,0.1h-89c-0.3,0-0.5,0-0.5-0.1v-49.9
			C2660,122.4,2660.2,122.4,2660.5,122.4z"/>
		<path class="st18" d="M2660.5,62.4h89c0.3,0,0.5,0,0.5,0.1v49.9c0,0-0.2,0.1-0.5,0.1h-89c-0.3,0-0.5,0-0.5-0.1V62.4
			C2660,62.4,2660.2,62.4,2660.5,62.4z"/>
		<path class="st18" d="M2660.5,2.4h89c0.3,0,0.5,0,0.5,0.1v49.9c0,0-0.2,0.1-0.5,0.1h-89c-0.3,0-0.5,0-0.5-0.1V2.4
			C2660,2.4,2660.2,2.4,2660.5,2.4z"/>
		<path class="st19" d="M2760.5,542.4h89c0.3,0,0.5,0,0.5,0.1v49.9c0,0-0.2,0.1-0.5,0.1h-89c-0.3,0-0.5,0-0.5-0.1v-49.9
			C2760,542.4,2760.2,542.4,2760.5,542.4z"/>
		<path class="st19" d="M2760.5,482.4h89c0.3,0,0.5,0,0.5,0.1v49.9c0,0-0.2,0.1-0.5,0.1h-89c-0.3,0-0.5,0-0.5-0.1v-49.9
			C2760,482.4,2760.2,482.4,2760.5,482.4z"/>
		<path class="st19" d="M2760.5,422.4h89c0.3,0,0.5,0,0.5,0.1v49.9c0,0-0.2,0.1-0.5,0.1h-89c-0.3,0-0.5,0-0.5-0.1v-49.9
			C2760,422.4,2760.2,422.4,2760.5,422.4z"/>
		<path class="st19" d="M2760.5,362.4h89c0.3,0,0.5,0,0.5,0.1v49.9c0,0-0.2,0.1-0.5,0.1h-89c-0.3,0-0.5,0-0.5-0.1v-49.9
			C2760,362.4,2760.2,362.4,2760.5,362.4z"/>
		<path class="st19" d="M2760.5,302.4h89c0.3,0,0.5,0,0.5,0.1v49.9c0,0-0.2,0.1-0.5,0.1h-89c-0.3,0-0.5,0-0.5-0.1v-49.9
			C2760,302.4,2760.2,302.4,2760.5,302.4z"/>
		<path class="st19" d="M2760.5,242.4h89c0.3,0,0.5,0,0.5,0.1v49.9c0,0-0.2,0.1-0.5,0.1h-89c-0.3,0-0.5,0-0.5-0.1v-49.9
			C2760,242.4,2760.2,242.4,2760.5,242.4z"/>
		<path class="st19" d="M2760.5,182.4h89c0.3,0,0.5,0,0.5,0.1v49.9c0,0-0.2,0.1-0.5,0.1h-89c-0.3,0-0.5,0-0.5-0.1v-49.9
			C2760,182.4,2760.2,182.4,2760.5,182.4z"/>
		<path class="st19" d="M2760.5,122.4h89c0.3,0,0.5,0,0.5,0.1v49.9c0,0-0.2,0.1-0.5,0.1h-89c-0.3,0-0.5,0-0.5-0.1v-49.9
			C2760,122.4,2760.2,122.4,2760.5,122.4z"/>
		<path class="st19" d="M2760.5,62.4h89c0.3,0,0.5,0,0.5,0.1v49.9c0,0-0.2,0.1-0.5,0.1h-89c-0.3,0-0.5,0-0.5-0.1V62.4
			C2760,62.4,2760.2,62.4,2760.5,62.4z"/>
		<path class="st20" d="M2860.5,542.4h89c0.3,0,0.5,0,0.5,0.1v49.9c0,0-0.2,0.1-0.5,0.1h-89c-0.3,0-0.5,0-0.5-0.1v-49.9
			C2860,542.4,2860.2,542.4,2860.5,542.4z"/>
		<path class="st20" d="M2860.5,482.4h89c0.3,0,0.5,0,0.5,0.1v49.9c0,0-0.2,0.1-0.5,0.1h-89c-0.3,0-0.5,0-0.5-0.1v-49.9
			C2860,482.4,2860.2,482.4,2860.5,482.4z"/>
		<path class="st20" d="M2860.5,422.4h89c0.3,0,0.5,0,0.5,0.1v49.9c0,0-0.2,0.1-0.5,0.1h-89c-0.3,0-0.5,0-0.5-0.1v-49.9
			C2860,422.4,2860.2,422.4,2860.5,422.4z"/>
		<path class="st20" d="M2860.5,362.4h89c0.3,0,0.5,0,0.5,0.1v49.9c0,0-0.2,0.1-0.5,0.1h-89c-0.3,0-0.5,0-0.5-0.1v-49.9
			C2860,362.4,2860.2,362.4,2860.5,362.4z"/>
		<path class="st20" d="M2860.5,302.4h89c0.3,0,0.5,0,0.5,0.1v49.9c0,0-0.2,0.1-0.5,0.1h-89c-0.3,0-0.5,0-0.5-0.1v-49.9
			C2860,302.4,2860.2,302.4,2860.5,302.4z"/>
		<path class="st20" d="M2860.5,242.4h89c0.3,0,0.5,0,0.5,0.1v49.9c0,0-0.2,0.1-0.5,0.1h-89c-0.3,0-0.5,0-0.5-0.1v-49.9
			C2860,242.4,2860.2,242.4,2860.5,242.4z"/>
		<path class="st20" d="M2860.5,182.4h89c0.3,0,0.5,0,0.5,0.1v49.9c0,0-0.2,0.1-0.5,0.1h-89c-0.3,0-0.5,0-0.5-0.1v-49.9
			C2860,182.4,2860.2,182.4,2860.5,182.4z"/>
		<path class="st20" d="M2860.5,122.4h89c0.3,0,0.5,0,0.5,0.1v49.9c0,0-0.2,0.1-0.5,0.1h-89c-0.3,0-0.5,0-0.5-0.1v-49.9
			C2860,122.4,2860.2,122.4,2860.5,122.4z"/>
		<path class="st20" d="M2860.5,62.4h89c0.3,0,0.5,0,0.5,0.1v49.9c0,0-0.2,0.1-0.5,0.1h-89c-0.3,0-0.5,0-0.5-0.1V62.4
			C2860,62.4,2860.2,62.4,2860.5,62.4z"/>
		<path class="st20" d="M2860.5,2.4h89c0.3,0,0.5,0,0.5,0.1v49.9c0,0-0.2,0.1-0.5,0.1h-89c-0.3,0-0.5,0-0.5-0.1V2.4
			C2860,2.4,2860.2,2.4,2860.5,2.4z"/>
		<path class="st21" d="M2960.5,542.4h89c0.3,0,0.5,0,0.5,0.1v49.9c0,0-0.2,0.1-0.5,0.1h-89c-0.3,0-0.5,0-0.5-0.1v-49.9
			C2960,542.4,2960.2,542.4,2960.5,542.4z"/>
		<path class="st21" d="M2960.5,482.4h89c0.3,0,0.5,0,0.5,0.1v49.9c0,0-0.2,0.1-0.5,0.1h-89c-0.3,0-0.5,0-0.5-0.1v-49.9
			C2960,482.4,2960.2,482.4,2960.5,482.4z"/>
		<path class="st21" d="M2960.5,422.4h89c0.3,0,0.5,0,0.5,0.1v49.9c0,0-0.2,0.1-0.5,0.1h-89c-0.3,0-0.5,0-0.5-0.1v-49.9
			C2960,422.4,2960.2,422.4,2960.5,422.4z"/>
		<path class="st21" d="M2960.5,362.4h89c0.3,0,0.5,0,0.5,0.1v49.9c0,0-0.2,0.1-0.5,0.1h-89c-0.3,0-0.5,0-0.5-0.1v-49.9
			C2960,362.4,2960.2,362.4,2960.5,362.4z"/>
		<path class="st21" d="M2960.5,302.4h89c0.3,0,0.5,0,0.5,0.1v49.9c0,0-0.2,0.1-0.5,0.1h-89c-0.3,0-0.5,0-0.5-0.1v-49.9
			C2960,302.4,2960.2,302.4,2960.5,302.4z"/>
		<path class="st21" d="M2960.5,242.4h89c0.3,0,0.5,0,0.5,0.1v49.9c0,0-0.2,0.1-0.5,0.1h-89c-0.3,0-0.5,0-0.5-0.1v-49.9
			C2960,242.4,2960.2,242.4,2960.5,242.4z"/>
		<path class="st21" d="M2960.5,182.4h89c0.3,0,0.5,0,0.5,0.1v49.9c0,0-0.2,0.1-0.5,0.1h-89c-0.3,0-0.5,0-0.5-0.1v-49.9
			C2960,182.4,2960.2,182.4,2960.5,182.4z"/>
		<path class="st21" d="M2960.5,122.4h89c0.3,0,0.5,0,0.5,0.1v49.9c0,0-0.2,0.1-0.5,0.1h-89c-0.3,0-0.5,0-0.5-0.1v-49.9
			C2960,122.4,2960.2,122.4,2960.5,122.4z"/>
		<path class="st21" d="M2960.5,62.4h89c0.3,0,0.5,0,0.5,0.1v49.9c0,0-0.2,0.1-0.5,0.1h-89c-0.3,0-0.5,0-0.5-0.1V62.4
			C2960,62.4,2960.2,62.4,2960.5,62.4z"/>
		<path class="st21" d="M2960.5,2.4h89c0.3,0,0.5,0,0.5,0.1v49.9c0,0-0.2,0.1-0.5,0.1h-89c-0.3,0-0.5,0-0.5-0.1V2.4
			C2960,2.4,2960.2,2.4,2960.5,2.4z"/>
		<path class="st21" d="M2960.5-57.6h89c0.3,0,0.5,0,0.5,0.1v49.9c0,0-0.2,0.1-0.5,0.1h-89c-0.3,0-0.5,0-0.5-0.1v-49.9
			C2960-57.6,2960.2-57.6,2960.5-57.6z"/>
		<path class="st22" d="M3060.5,542.4h89c0.3,0,0.5,0,0.5,0.1v49.9c0,0-0.2,0.1-0.5,0.1h-89c-0.3,0-0.5,0-0.5-0.1v-49.9
			C3060,542.4,3060.2,542.4,3060.5,542.4z"/>
		<path class="st22" d="M3060.5,482.4h89c0.3,0,0.5,0,0.5,0.1v49.9c0,0-0.2,0.1-0.5,0.1h-89c-0.3,0-0.5,0-0.5-0.1v-49.9
			C3060,482.4,3060.2,482.4,3060.5,482.4z"/>
		<path class="st22" d="M3060.5,422.4h89c0.3,0,0.5,0,0.5,0.1v49.9c0,0-0.2,0.1-0.5,0.1h-89c-0.3,0-0.5,0-0.5-0.1v-49.9
			C3060,422.4,3060.2,422.4,3060.5,422.4z"/>
		<path class="st22" d="M3060.5,362.4h89c0.3,0,0.5,0,0.5,0.1v49.9c0,0-0.2,0.1-0.5,0.1h-89c-0.3,0-0.5,0-0.5-0.1v-49.9
			C3060,362.4,3060.2,362.4,3060.5,362.4z"/>
		<path class="st22" d="M3060.5,302.4h89c0.3,0,0.5,0,0.5,0.1v49.9c0,0-0.2,0.1-0.5,0.1h-89c-0.3,0-0.5,0-0.5-0.1v-49.9
			C3060,302.4,3060.2,302.4,3060.5,302.4z"/>
		<path class="st22" d="M3060.5,242.4h89c0.3,0,0.5,0,0.5,0.1v49.9c0,0-0.2,0.1-0.5,0.1h-89c-0.3,0-0.5,0-0.5-0.1v-49.9
			C3060,242.4,3060.2,242.4,3060.5,242.4z"/>
		<path class="st22" d="M3060.5,182.4h89c0.3,0,0.5,0,0.5,0.1v49.9c0,0-0.2,0.1-0.5,0.1h-89c-0.3,0-0.5,0-0.5-0.1v-49.9
			C3060,182.4,3060.2,182.4,3060.5,182.4z"/>
		<path class="st22" d="M3060.5,122.4h89c0.3,0,0.5,0,0.5,0.1v49.9c0,0-0.2,0.1-0.5,0.1h-89c-0.3,0-0.5,0-0.5-0.1v-49.9
			C3060,122.4,3060.2,122.4,3060.5,122.4z"/>
		<path class="st22" d="M3060.5,62.4h89c0.3,0,0.5,0,0.5,0.1v49.9c0,0-0.2,0.1-0.5,0.1h-89c-0.3,0-0.5,0-0.5-0.1V62.4
			C3060,62.4,3060.2,62.4,3060.5,62.4z"/>
		<path class="st22" d="M3060.5,2.4h89c0.3,0,0.5,0,0.5,0.1v49.9c0,0-0.2,0.1-0.5,0.1h-89c-0.3,0-0.5,0-0.5-0.1V2.4
			C3060,2.4,3060.2,2.4,3060.5,2.4z"/>
		<path class="st22" d="M3060.5-57.6h89c0.3,0,0.5,0,0.5,0.1v49.9c0,0-0.2,0.1-0.5,0.1h-89c-0.3,0-0.5,0-0.5-0.1v-49.9
			C3060-57.6,3060.2-57.6,3060.5-57.6z"/>
		<path class="st22" d="M3060.5-117.6h89c0.3,0,0.5,0,0.5,0.1v49.9c0,0-0.2,0.1-0.5,0.1h-89c-0.3,0-0.5,0-0.5-0.1v-49.9
			C3060-117.6,3060.2-117.6,3060.5-117.6z"/>
	</g>
	<path class="st0" d="M760.5,662.4h89c0.3,0,0.5,0,0.5-0.1v-49.9c0,0-0.2-0.1-0.5-0.1h-89c-0.3,0-0.5,0-0.5,0.1v49.9
		C760,662.3,760.2,662.4,760.5,662.4z"/>
	<path class="st0" d="M760.5,722.4h89c0.3,0,0.5,0,0.5-0.1v-49.9c0,0-0.2-0.1-0.5-0.1h-89c-0.3,0-0.5,0-0.5,0.1v49.9
		C760,722.3,760.2,722.4,760.5,722.4z"/>
	<path class="st0" d="M760.5,782.4h89c0.3,0,0.5,0,0.5-0.1v-49.9c0,0-0.2-0.1-0.5-0.1h-89c-0.3,0-0.5,0-0.5,0.1v49.9
		C760,782.3,760.2,782.4,760.5,782.4z"/>
	<path class="st0" d="M760.5,842.4h89c0.3,0,0.5,0,0.5-0.1v-49.9c0,0-0.2-0.1-0.5-0.1h-89c-0.3,0-0.5,0-0.5,0.1v49.9
		C760,842.3,760.2,842.4,760.5,842.4z"/>
	<path class="st0" d="M760.5,902.4h89c0.3,0,0.5,0,0.5-0.1v-49.9c0,0-0.2-0.1-0.5-0.1h-89c-0.3,0-0.5,0-0.5,0.1v49.9
		C760,902.3,760.2,902.4,760.5,902.4z"/>
	<path class="st0" d="M760.5,962.4h89c0.3,0,0.5,0,0.5-0.1v-49.9c0,0-0.2-0.1-0.5-0.1h-89c-0.3,0-0.5,0-0.5,0.1v49.9
		C760,962.3,760.2,962.4,760.5,962.4z"/>
	<path class="st0" d="M760.5,1022.4h89c0.3,0,0.5,0,0.5-0.1v-49.9c0,0-0.2-0.1-0.5-0.1h-89c-0.3,0-0.5,0-0.5,0.1v49.9
		C760,1022.4,760.2,1022.4,760.5,1022.4z"/>
	<path class="st0" d="M760.5,1082.4h89c0.3,0,0.5,0,0.5-0.1v-49.9c0,0-0.2-0.1-0.5-0.1h-89c-0.3,0-0.5,0-0.5,0.1v49.9
		C760,1082.4,760.2,1082.4,760.5,1082.4z"/>
	<path class="st0" d="M760.5,1142.4h89c0.3,0,0.5,0,0.5-0.1v-49.9c0,0-0.2-0.1-0.5-0.1h-89c-0.3,0-0.5,0-0.5,0.1v49.9
		C760,1142.4,760.2,1142.4,760.5,1142.4z"/>
	<path class="st0" d="M760.5,1202.4h89c0.3,0,0.5,0,0.5-0.1v-49.9c0,0-0.2-0.1-0.5-0.1h-89c-0.3,0-0.5,0-0.5,0.1v49.9
		C760,1202.4,760.2,1202.4,760.5,1202.4z"/>
	<path class="st1" d="M860.5,662.4h89c0.3,0,0.5,0,0.5-0.1v-49.9c0,0-0.2-0.1-0.5-0.1h-89c-0.3,0-0.5,0-0.5,0.1v49.9
		C860,662.3,860.2,662.4,860.5,662.4z"/>
	<path class="st1" d="M860.5,722.4h89c0.3,0,0.5,0,0.5-0.1v-49.9c0,0-0.2-0.1-0.5-0.1h-89c-0.3,0-0.5,0-0.5,0.1v49.9
		C860,722.3,860.2,722.4,860.5,722.4z"/>
	<path class="st1" d="M860.5,782.4h89c0.3,0,0.5,0,0.5-0.1v-49.9c0,0-0.2-0.1-0.5-0.1h-89c-0.3,0-0.5,0-0.5,0.1v49.9
		C860,782.3,860.2,782.4,860.5,782.4z"/>
	<path class="st1" d="M860.5,842.4h89c0.3,0,0.5,0,0.5-0.1v-49.9c0,0-0.2-0.1-0.5-0.1h-89c-0.3,0-0.5,0-0.5,0.1v49.9
		C860,842.3,860.2,842.4,860.5,842.4z"/>
	<path class="st1" d="M860.5,902.4h89c0.3,0,0.5,0,0.5-0.1v-49.9c0,0-0.2-0.1-0.5-0.1h-89c-0.3,0-0.5,0-0.5,0.1v49.9
		C860,902.3,860.2,902.4,860.5,902.4z"/>
	<path class="st1" d="M860.5,962.4h89c0.3,0,0.5,0,0.5-0.1v-49.9c0,0-0.2-0.1-0.5-0.1h-89c-0.3,0-0.5,0-0.5,0.1v49.9
		C860,962.3,860.2,962.4,860.5,962.4z"/>
	<path class="st1" d="M860.5,1022.4h89c0.3,0,0.5,0,0.5-0.1v-49.9c0,0-0.2-0.1-0.5-0.1h-89c-0.3,0-0.5,0-0.5,0.1v49.9
		C860,1022.4,860.2,1022.4,860.5,1022.4z"/>
	<path class="st1" d="M860.5,1082.4h89c0.3,0,0.5,0,0.5-0.1v-49.9c0,0-0.2-0.1-0.5-0.1h-89c-0.3,0-0.5,0-0.5,0.1v49.9
		C860,1082.4,860.2,1082.4,860.5,1082.4z"/>
	<path class="st1" d="M860.5,1142.4h89c0.3,0,0.5,0,0.5-0.1v-49.9c0,0-0.2-0.1-0.5-0.1h-89c-0.3,0-0.5,0-0.5,0.1v49.9
		C860,1142.4,860.2,1142.4,860.5,1142.4z"/>
	<path class="st1" d="M860.5,1202.4h89c0.3,0,0.5,0,0.5-0.1v-49.9c0,0-0.2-0.1-0.5-0.1h-89c-0.3,0-0.5,0-0.5,0.1v49.9
		C860,1202.4,860.2,1202.4,860.5,1202.4z"/>
	<path class="st1" d="M860.5,1262.4h89c0.3,0,0.5,0,0.5-0.1v-49.9c0,0-0.2-0.1-0.5-0.1h-89c-0.3,0-0.5,0-0.5,0.1v49.9
		C860,1262.4,860.2,1262.4,860.5,1262.4z"/>
	<path class="st2" d="M960.5,662.4h89c0.3,0,0.5,0,0.5-0.1v-49.9c0,0-0.2-0.1-0.5-0.1h-89c-0.3,0-0.5,0-0.5,0.1v49.9
		C960,662.3,960.2,662.4,960.5,662.4z"/>
	<path class="st2" d="M960.5,722.4h89c0.3,0,0.5,0,0.5-0.1v-49.9c0,0-0.2-0.1-0.5-0.1h-89c-0.3,0-0.5,0-0.5,0.1v49.9
		C960,722.3,960.2,722.4,960.5,722.4z"/>
	<path class="st2" d="M960.5,782.4h89c0.3,0,0.5,0,0.5-0.1v-49.9c0,0-0.2-0.1-0.5-0.1h-89c-0.3,0-0.5,0-0.5,0.1v49.9
		C960,782.3,960.2,782.4,960.5,782.4z"/>
	<path class="st2" d="M960.5,842.4h89c0.3,0,0.5,0,0.5-0.1v-49.9c0,0-0.2-0.1-0.5-0.1h-89c-0.3,0-0.5,0-0.5,0.1v49.9
		C960,842.3,960.2,842.4,960.5,842.4z"/>
	<path class="st2" d="M960.5,902.4h89c0.3,0,0.5,0,0.5-0.1v-49.9c0,0-0.2-0.1-0.5-0.1h-89c-0.3,0-0.5,0-0.5,0.1v49.9
		C960,902.3,960.2,902.4,960.5,902.4z"/>
	<path class="st2" d="M960.5,962.4h89c0.3,0,0.5,0,0.5-0.1v-49.9c0,0-0.2-0.1-0.5-0.1h-89c-0.3,0-0.5,0-0.5,0.1v49.9
		C960,962.3,960.2,962.4,960.5,962.4z"/>
	<path class="st2" d="M960.5,1022.4h89c0.3,0,0.5,0,0.5-0.1v-49.9c0,0-0.2-0.1-0.5-0.1h-89c-0.3,0-0.5,0-0.5,0.1v49.9
		C960,1022.4,960.2,1022.4,960.5,1022.4z"/>
	<path class="st2" d="M960.5,1082.4h89c0.3,0,0.5,0,0.5-0.1v-49.9c0,0-0.2-0.1-0.5-0.1h-89c-0.3,0-0.5,0-0.5,0.1v49.9
		C960,1082.4,960.2,1082.4,960.5,1082.4z"/>
	<path class="st2" d="M960.5,1142.4h89c0.3,0,0.5,0,0.5-0.1v-49.9c0,0-0.2-0.1-0.5-0.1h-89c-0.3,0-0.5,0-0.5,0.1v49.9
		C960,1142.4,960.2,1142.4,960.5,1142.4z"/>
	<path class="st3" d="M1060.5,662.4h89c0.3,0,0.5,0,0.5-0.1v-49.9c0,0-0.2-0.1-0.5-0.1h-89c-0.3,0-0.5,0-0.5,0.1v49.9
		C1060,662.3,1060.2,662.4,1060.5,662.4z"/>
	<path class="st3" d="M1060.5,722.4h89c0.3,0,0.5,0,0.5-0.1v-49.9c0,0-0.2-0.1-0.5-0.1h-89c-0.3,0-0.5,0-0.5,0.1v49.9
		C1060,722.3,1060.2,722.4,1060.5,722.4z"/>
	<path class="st3" d="M1060.5,782.4h89c0.3,0,0.5,0,0.5-0.1v-49.9c0,0-0.2-0.1-0.5-0.1h-89c-0.3,0-0.5,0-0.5,0.1v49.9
		C1060,782.3,1060.2,782.4,1060.5,782.4z"/>
	<path class="st3" d="M1060.5,842.4h89c0.3,0,0.5,0,0.5-0.1v-49.9c0,0-0.2-0.1-0.5-0.1h-89c-0.3,0-0.5,0-0.5,0.1v49.9
		C1060,842.3,1060.2,842.4,1060.5,842.4z"/>
	<path class="st3" d="M1060.5,902.4h89c0.3,0,0.5,0,0.5-0.1v-49.9c0,0-0.2-0.1-0.5-0.1h-89c-0.3,0-0.5,0-0.5,0.1v49.9
		C1060,902.3,1060.2,902.4,1060.5,902.4z"/>
	<path class="st3" d="M1060.5,962.4h89c0.3,0,0.5,0,0.5-0.1v-49.9c0,0-0.2-0.1-0.5-0.1h-89c-0.3,0-0.5,0-0.5,0.1v49.9
		C1060,962.3,1060.2,962.4,1060.5,962.4z"/>
	<path class="st3" d="M1060.5,1022.4h89c0.3,0,0.5,0,0.5-0.1v-49.9c0,0-0.2-0.1-0.5-0.1h-89c-0.3,0-0.5,0-0.5,0.1v49.9
		C1060,1022.4,1060.2,1022.4,1060.5,1022.4z"/>
	<path class="st3" d="M1060.5,1082.4h89c0.3,0,0.5,0,0.5-0.1v-49.9c0,0-0.2-0.1-0.5-0.1h-89c-0.3,0-0.5,0-0.5,0.1v49.9
		C1060,1082.4,1060.2,1082.4,1060.5,1082.4z"/>
	<path class="st4" d="M1160.5,662.4h89c0.3,0,0.5,0,0.5-0.1v-49.9c0,0-0.2-0.1-0.5-0.1h-89c-0.3,0-0.5,0-0.5,0.1v49.9
		C1160,662.3,1160.2,662.4,1160.5,662.4z"/>
	<path class="st4" d="M1160.5,722.4h89c0.3,0,0.5,0,0.5-0.1v-49.9c0,0-0.2-0.1-0.5-0.1h-89c-0.3,0-0.5,0-0.5,0.1v49.9
		C1160,722.3,1160.2,722.4,1160.5,722.4z"/>
	<path class="st4" d="M1160.5,782.4h89c0.3,0,0.5,0,0.5-0.1v-49.9c0,0-0.2-0.1-0.5-0.1h-89c-0.3,0-0.5,0-0.5,0.1v49.9
		C1160,782.3,1160.2,782.4,1160.5,782.4z"/>
	<path class="st4" d="M1160.5,842.4h89c0.3,0,0.5,0,0.5-0.1v-49.9c0,0-0.2-0.1-0.5-0.1h-89c-0.3,0-0.5,0-0.5,0.1v49.9
		C1160,842.3,1160.2,842.4,1160.5,842.4z"/>
	<path class="st4" d="M1160.5,902.4h89c0.3,0,0.5,0,0.5-0.1v-49.9c0,0-0.2-0.1-0.5-0.1h-89c-0.3,0-0.5,0-0.5,0.1v49.9
		C1160,902.3,1160.2,902.4,1160.5,902.4z"/>
	<path class="st4" d="M1160.5,962.4h89c0.3,0,0.5,0,0.5-0.1v-49.9c0,0-0.2-0.1-0.5-0.1h-89c-0.3,0-0.5,0-0.5,0.1v49.9
		C1160,962.3,1160.2,962.4,1160.5,962.4z"/>
	<path class="st4" d="M1160.5,1022.4h89c0.3,0,0.5,0,0.5-0.1v-49.9c0,0-0.2-0.1-0.5-0.1h-89c-0.3,0-0.5,0-0.5,0.1v49.9
		C1160,1022.4,1160.2,1022.4,1160.5,1022.4z"/>
	<path class="st4" d="M1160.5,1082.4h89c0.3,0,0.5,0,0.5-0.1v-49.9c0,0-0.2-0.1-0.5-0.1h-89c-0.3,0-0.5,0-0.5,0.1v49.9
		C1160,1082.4,1160.2,1082.4,1160.5,1082.4z"/>
	<path class="st4" d="M1160.5,1142.4h89c0.3,0,0.5,0,0.5-0.1v-49.9c0,0-0.2-0.1-0.5-0.1h-89c-0.3,0-0.5,0-0.5,0.1v49.9
		C1160,1142.4,1160.2,1142.4,1160.5,1142.4z"/>
	<path class="st4" d="M1160.5,1202.4h89c0.3,0,0.5,0,0.5-0.1v-49.9c0,0-0.2-0.1-0.5-0.1h-89c-0.3,0-0.5,0-0.5,0.1v49.9
		C1160,1202.4,1160.2,1202.4,1160.5,1202.4z"/>
	<path class="st5" d="M1260.5,662.4h89c0.3,0,0.5,0,0.5-0.1v-49.9c0,0-0.2-0.1-0.5-0.1h-89c-0.3,0-0.5,0-0.5,0.1v49.9
		C1260,662.3,1260.2,662.4,1260.5,662.4z"/>
	<path class="st5" d="M1260.5,722.4h89c0.3,0,0.5,0,0.5-0.1v-49.9c0,0-0.2-0.1-0.5-0.1h-89c-0.3,0-0.5,0-0.5,0.1v49.9
		C1260,722.3,1260.2,722.4,1260.5,722.4z"/>
	<path class="st5" d="M1260.5,782.4h89c0.3,0,0.5,0,0.5-0.1v-49.9c0,0-0.2-0.1-0.5-0.1h-89c-0.3,0-0.5,0-0.5,0.1v49.9
		C1260,782.3,1260.2,782.4,1260.5,782.4z"/>
	<path class="st5" d="M1260.5,842.4h89c0.3,0,0.5,0,0.5-0.1v-49.9c0,0-0.2-0.1-0.5-0.1h-89c-0.3,0-0.5,0-0.5,0.1v49.9
		C1260,842.3,1260.2,842.4,1260.5,842.4z"/>
	<path class="st5" d="M1260.5,902.4h89c0.3,0,0.5,0,0.5-0.1v-49.9c0,0-0.2-0.1-0.5-0.1h-89c-0.3,0-0.5,0-0.5,0.1v49.9
		C1260,902.3,1260.2,902.4,1260.5,902.4z"/>
	<path class="st5" d="M1260.5,962.4h89c0.3,0,0.5,0,0.5-0.1v-49.9c0,0-0.2-0.1-0.5-0.1h-89c-0.3,0-0.5,0-0.5,0.1v49.9
		C1260,962.3,1260.2,962.4,1260.5,962.4z"/>
	<path class="st5" d="M1260.5,1022.4h89c0.3,0,0.5,0,0.5-0.1v-49.9c0,0-0.2-0.1-0.5-0.1h-89c-0.3,0-0.5,0-0.5,0.1v49.9
		C1260,1022.4,1260.2,1022.4,1260.5,1022.4z"/>
	<path class="st5" d="M1260.5,1082.4h89c0.3,0,0.5,0,0.5-0.1v-49.9c0,0-0.2-0.1-0.5-0.1h-89c-0.3,0-0.5,0-0.5,0.1v49.9
		C1260,1082.4,1260.2,1082.4,1260.5,1082.4z"/>
	<path class="st5" d="M1260.5,1142.4h89c0.3,0,0.5,0,0.5-0.1v-49.9c0,0-0.2-0.1-0.5-0.1h-89c-0.3,0-0.5,0-0.5,0.1v49.9
		C1260,1142.4,1260.2,1142.4,1260.5,1142.4z"/>
	<path class="st6" d="M1360.5,662.4h89c0.3,0,0.5,0,0.5-0.1v-49.9c0,0-0.2-0.1-0.5-0.1h-89c-0.3,0-0.5,0-0.5,0.1v49.9
		C1360,662.3,1360.2,662.4,1360.5,662.4z"/>
	<path class="st6" d="M1360.5,722.4h89c0.3,0,0.5,0,0.5-0.1v-49.9c0,0-0.2-0.1-0.5-0.1h-89c-0.3,0-0.5,0-0.5,0.1v49.9
		C1360,722.3,1360.2,722.4,1360.5,722.4z"/>
	<path class="st6" d="M1360.5,782.4h89c0.3,0,0.5,0,0.5-0.1v-49.9c0,0-0.2-0.1-0.5-0.1h-89c-0.3,0-0.5,0-0.5,0.1v49.9
		C1360,782.3,1360.2,782.4,1360.5,782.4z"/>
	<path class="st6" d="M1360.5,842.4h89c0.3,0,0.5,0,0.5-0.1v-49.9c0,0-0.2-0.1-0.5-0.1h-89c-0.3,0-0.5,0-0.5,0.1v49.9
		C1360,842.3,1360.2,842.4,1360.5,842.4z"/>
	<path class="st6" d="M1360.5,902.4h89c0.3,0,0.5,0,0.5-0.1v-49.9c0,0-0.2-0.1-0.5-0.1h-89c-0.3,0-0.5,0-0.5,0.1v49.9
		C1360,902.3,1360.2,902.4,1360.5,902.4z"/>
	<path class="st6" d="M1360.5,962.4h89c0.3,0,0.5,0,0.5-0.1v-49.9c0,0-0.2-0.1-0.5-0.1h-89c-0.3,0-0.5,0-0.5,0.1v49.9
		C1360,962.3,1360.2,962.4,1360.5,962.4z"/>
	<path class="st6" d="M1360.5,1022.4h89c0.3,0,0.5,0,0.5-0.1v-49.9c0,0-0.2-0.1-0.5-0.1h-89c-0.3,0-0.5,0-0.5,0.1v49.9
		C1360,1022.4,1360.2,1022.4,1360.5,1022.4z"/>
	<path class="st6" d="M1360.5,1082.4h89c0.3,0,0.5,0,0.5-0.1v-49.9c0,0-0.2-0.1-0.5-0.1h-89c-0.3,0-0.5,0-0.5,0.1v49.9
		C1360,1082.4,1360.2,1082.4,1360.5,1082.4z"/>
	<path class="st6" d="M1460.5,662.4h89c0.3,0,0.5,0,0.5-0.1v-49.9c0,0-0.2-0.1-0.5-0.1h-89c-0.3,0-0.5,0-0.5,0.1v49.9
		C1460,662.3,1460.2,662.4,1460.5,662.4z"/>
	<path class="st6" d="M1460.5,722.4h89c0.3,0,0.5,0,0.5-0.1v-49.9c0,0-0.2-0.1-0.5-0.1h-89c-0.3,0-0.5,0-0.5,0.1v49.9
		C1460,722.3,1460.2,722.4,1460.5,722.4z"/>
	<path class="st6" d="M1460.5,782.4h89c0.3,0,0.5,0,0.5-0.1v-49.9c0,0-0.2-0.1-0.5-0.1h-89c-0.3,0-0.5,0-0.5,0.1v49.9
		C1460,782.3,1460.2,782.4,1460.5,782.4z"/>
	<path class="st6" d="M1460.5,842.4h89c0.3,0,0.5,0,0.5-0.1v-49.9c0,0-0.2-0.1-0.5-0.1h-89c-0.3,0-0.5,0-0.5,0.1v49.9
		C1460,842.3,1460.2,842.4,1460.5,842.4z"/>
	<path class="st6" d="M1460.5,902.4h89c0.3,0,0.5,0,0.5-0.1v-49.9c0,0-0.2-0.1-0.5-0.1h-89c-0.3,0-0.5,0-0.5,0.1v49.9
		C1460,902.3,1460.2,902.4,1460.5,902.4z"/>
	<path class="st6" d="M1460.5,962.4h89c0.3,0,0.5,0,0.5-0.1v-49.9c0,0-0.2-0.1-0.5-0.1h-89c-0.3,0-0.5,0-0.5,0.1v49.9
		C1460,962.3,1460.2,962.4,1460.5,962.4z"/>
	<path class="st6" d="M1460.5,1022.4h89c0.3,0,0.5,0,0.5-0.1v-49.9c0,0-0.2-0.1-0.5-0.1h-89c-0.3,0-0.5,0-0.5,0.1v49.9
		C1460,1022.4,1460.2,1022.4,1460.5,1022.4z"/>
	<path class="st6" d="M1460.5,1082.4h89c0.3,0,0.5,0,0.5-0.1v-49.9c0,0-0.2-0.1-0.5-0.1h-89c-0.3,0-0.5,0-0.5,0.1v49.9
		C1460,1082.4,1460.2,1082.4,1460.5,1082.4z"/>
	<path class="st6" d="M1460.5,1142.4h89c0.3,0,0.5,0,0.5-0.1v-49.9c0,0-0.2-0.1-0.5-0.1h-89c-0.3,0-0.5,0-0.5,0.1v49.9
		C1460,1142.4,1460.2,1142.4,1460.5,1142.4z"/>
	<path class="st7" d="M1560.5,662.4h89c0.3,0,0.5,0,0.5-0.1v-49.9c0,0-0.2-0.1-0.5-0.1h-89c-0.3,0-0.5,0-0.5,0.1v49.9
		C1560,662.3,1560.2,662.4,1560.5,662.4z"/>
	<path class="st7" d="M1560.5,722.4h89c0.3,0,0.5,0,0.5-0.1v-49.9c0,0-0.2-0.1-0.5-0.1h-89c-0.3,0-0.5,0-0.5,0.1v49.9
		C1560,722.3,1560.2,722.4,1560.5,722.4z"/>
	<path class="st7" d="M1560.5,782.4h89c0.3,0,0.5,0,0.5-0.1v-49.9c0,0-0.2-0.1-0.5-0.1h-89c-0.3,0-0.5,0-0.5,0.1v49.9
		C1560,782.3,1560.2,782.4,1560.5,782.4z"/>
	<path class="st7" d="M1560.5,842.4h89c0.3,0,0.5,0,0.5-0.1v-49.9c0,0-0.2-0.1-0.5-0.1h-89c-0.3,0-0.5,0-0.5,0.1v49.9
		C1560,842.3,1560.2,842.4,1560.5,842.4z"/>
	<path class="st7" d="M1560.5,902.4h89c0.3,0,0.5,0,0.5-0.1v-49.9c0,0-0.2-0.1-0.5-0.1h-89c-0.3,0-0.5,0-0.5,0.1v49.9
		C1560,902.3,1560.2,902.4,1560.5,902.4z"/>
	<path class="st7" d="M1560.5,962.4h89c0.3,0,0.5,0,0.5-0.1v-49.9c0,0-0.2-0.1-0.5-0.1h-89c-0.3,0-0.5,0-0.5,0.1v49.9
		C1560,962.3,1560.2,962.4,1560.5,962.4z"/>
	<path class="st7" d="M1560.5,1022.4h89c0.3,0,0.5,0,0.5-0.1v-49.9c0,0-0.2-0.1-0.5-0.1h-89c-0.3,0-0.5,0-0.5,0.1v49.9
		C1560,1022.4,1560.2,1022.4,1560.5,1022.4z"/>
	<path class="st7" d="M1560.5,1082.4h89c0.3,0,0.5,0,0.5-0.1v-49.9c0,0-0.2-0.1-0.5-0.1h-89c-0.3,0-0.5,0-0.5,0.1v49.9
		C1560,1082.4,1560.2,1082.4,1560.5,1082.4z"/>
	<path class="st7" d="M1560.5,1142.4h89c0.3,0,0.5,0,0.5-0.1v-49.9c0,0-0.2-0.1-0.5-0.1h-89c-0.3,0-0.5,0-0.5,0.1v49.9
		C1560,1142.4,1560.2,1142.4,1560.5,1142.4z"/>
	<path class="st7" d="M1560.5,1202.4h89c0.3,0,0.5,0,0.5-0.1v-49.9c0,0-0.2-0.1-0.5-0.1h-89c-0.3,0-0.5,0-0.5,0.1v49.9
		C1560,1202.4,1560.2,1202.4,1560.5,1202.4z"/>
	<path class="st8" d="M1660.5,662.4h89c0.3,0,0.5,0,0.5-0.1v-49.9c0,0-0.2-0.1-0.5-0.1h-89c-0.3,0-0.5,0-0.5,0.1v49.9
		C1660,662.3,1660.2,662.4,1660.5,662.4z"/>
	<path class="st8" d="M1660.5,722.4h89c0.3,0,0.5,0,0.5-0.1v-49.9c0,0-0.2-0.1-0.5-0.1h-89c-0.3,0-0.5,0-0.5,0.1v49.9
		C1660,722.3,1660.2,722.4,1660.5,722.4z"/>
	<path class="st8" d="M1660.5,782.4h89c0.3,0,0.5,0,0.5-0.1v-49.9c0,0-0.2-0.1-0.5-0.1h-89c-0.3,0-0.5,0-0.5,0.1v49.9
		C1660,782.3,1660.2,782.4,1660.5,782.4z"/>
	<path class="st8" d="M1660.5,842.4h89c0.3,0,0.5,0,0.5-0.1v-49.9c0,0-0.2-0.1-0.5-0.1h-89c-0.3,0-0.5,0-0.5,0.1v49.9
		C1660,842.3,1660.2,842.4,1660.5,842.4z"/>
	<path class="st8" d="M1660.5,902.4h89c0.3,0,0.5,0,0.5-0.1v-49.9c0,0-0.2-0.1-0.5-0.1h-89c-0.3,0-0.5,0-0.5,0.1v49.9
		C1660,902.3,1660.2,902.4,1660.5,902.4z"/>
	<path class="st8" d="M1660.5,962.4h89c0.3,0,0.5,0,0.5-0.1v-49.9c0,0-0.2-0.1-0.5-0.1h-89c-0.3,0-0.5,0-0.5,0.1v49.9
		C1660,962.3,1660.2,962.4,1660.5,962.4z"/>
	<path class="st8" d="M1660.5,1022.4h89c0.3,0,0.5,0,0.5-0.1v-49.9c0,0-0.2-0.1-0.5-0.1h-89c-0.3,0-0.5,0-0.5,0.1v49.9
		C1660,1022.4,1660.2,1022.4,1660.5,1022.4z"/>
	<path class="st8" d="M1660.5,1082.4h89c0.3,0,0.5,0,0.5-0.1v-49.9c0,0-0.2-0.1-0.5-0.1h-89c-0.3,0-0.5,0-0.5,0.1v49.9
		C1660,1082.4,1660.2,1082.4,1660.5,1082.4z"/>
	<path class="st8" d="M1660.5,1142.4h89c0.3,0,0.5,0,0.5-0.1v-49.9c0,0-0.2-0.1-0.5-0.1h-89c-0.3,0-0.5,0-0.5,0.1v49.9
		C1660,1142.4,1660.2,1142.4,1660.5,1142.4z"/>
	<path class="st8" d="M1660.5,1202.4h89c0.3,0,0.5,0,0.5-0.1v-49.9c0,0-0.2-0.1-0.5-0.1h-89c-0.3,0-0.5,0-0.5,0.1v49.9
		C1660,1202.4,1660.2,1202.4,1660.5,1202.4z"/>
	<path class="st8" d="M1660.5,1262.4h89c0.3,0,0.5,0,0.5-0.1v-49.9c0,0-0.2-0.1-0.5-0.1h-89c-0.3,0-0.5,0-0.5,0.1v49.9
		C1660,1262.4,1660.2,1262.4,1660.5,1262.4z"/>
	<path class="st8" d="M1660.5,1322.4h89c0.3,0,0.5,0,0.5-0.1v-49.9c0,0-0.2-0.1-0.5-0.1h-89c-0.3,0-0.5,0-0.5,0.1v49.9
		C1660,1322.4,1660.2,1322.4,1660.5,1322.4z"/>
	<path class="st9" d="M1760.5,662.4h89c0.3,0,0.5,0,0.5-0.1v-49.9c0,0-0.2-0.1-0.5-0.1h-89c-0.3,0-0.5,0-0.5,0.1v49.9
		C1760,662.3,1760.2,662.4,1760.5,662.4z"/>
	<path class="st9" d="M1760.5,722.4h89c0.3,0,0.5,0,0.5-0.1v-49.9c0,0-0.2-0.1-0.5-0.1h-89c-0.3,0-0.5,0-0.5,0.1v49.9
		C1760,722.3,1760.2,722.4,1760.5,722.4z"/>
	<path class="st9" d="M1760.5,782.4h89c0.3,0,0.5,0,0.5-0.1v-49.9c0,0-0.2-0.1-0.5-0.1h-89c-0.3,0-0.5,0-0.5,0.1v49.9
		C1760,782.3,1760.2,782.4,1760.5,782.4z"/>
	<path class="st9" d="M1760.5,842.4h89c0.3,0,0.5,0,0.5-0.1v-49.9c0,0-0.2-0.1-0.5-0.1h-89c-0.3,0-0.5,0-0.5,0.1v49.9
		C1760,842.3,1760.2,842.4,1760.5,842.4z"/>
	<path class="st9" d="M1760.5,902.4h89c0.3,0,0.5,0,0.5-0.1v-49.9c0,0-0.2-0.1-0.5-0.1h-89c-0.3,0-0.5,0-0.5,0.1v49.9
		C1760,902.3,1760.2,902.4,1760.5,902.4z"/>
	<path class="st9" d="M1760.5,962.4h89c0.3,0,0.5,0,0.5-0.1v-49.9c0,0-0.2-0.1-0.5-0.1h-89c-0.3,0-0.5,0-0.5,0.1v49.9
		C1760,962.3,1760.2,962.4,1760.5,962.4z"/>
	<path class="st9" d="M1760.5,1022.4h89c0.3,0,0.5,0,0.5-0.1v-49.9c0,0-0.2-0.1-0.5-0.1h-89c-0.3,0-0.5,0-0.5,0.1v49.9
		C1760,1022.4,1760.2,1022.4,1760.5,1022.4z"/>
	<path class="st9" d="M1760.5,1082.4h89c0.3,0,0.5,0,0.5-0.1v-49.9c0,0-0.2-0.1-0.5-0.1h-89c-0.3,0-0.5,0-0.5,0.1v49.9
		C1760,1082.4,1760.2,1082.4,1760.5,1082.4z"/>
	<path class="st9" d="M1760.5,1142.4h89c0.3,0,0.5,0,0.5-0.1v-49.9c0,0-0.2-0.1-0.5-0.1h-89c-0.3,0-0.5,0-0.5,0.1v49.9
		C1760,1142.4,1760.2,1142.4,1760.5,1142.4z"/>
	<path class="st9" d="M1760.5,1202.4h89c0.3,0,0.5,0,0.5-0.1v-49.9c0,0-0.2-0.1-0.5-0.1h-89c-0.3,0-0.5,0-0.5,0.1v49.9
		C1760,1202.4,1760.2,1202.4,1760.5,1202.4z"/>
	<path class="st10" d="M1860.5,662.4h89c0.3,0,0.5,0,0.5-0.1v-49.9c0,0-0.2-0.1-0.5-0.1h-89c-0.3,0-0.5,0-0.5,0.1v49.9
		C1860,662.3,1860.2,662.4,1860.5,662.4z"/>
	<path class="st10" d="M1860.5,722.4h89c0.3,0,0.5,0,0.5-0.1v-49.9c0,0-0.2-0.1-0.5-0.1h-89c-0.3,0-0.5,0-0.5,0.1v49.9
		C1860,722.3,1860.2,722.4,1860.5,722.4z"/>
	<path class="st10" d="M1860.5,782.4h89c0.3,0,0.5,0,0.5-0.1v-49.9c0,0-0.2-0.1-0.5-0.1h-89c-0.3,0-0.5,0-0.5,0.1v49.9
		C1860,782.3,1860.2,782.4,1860.5,782.4z"/>
	<path class="st10" d="M1860.5,842.4h89c0.3,0,0.5,0,0.5-0.1v-49.9c0,0-0.2-0.1-0.5-0.1h-89c-0.3,0-0.5,0-0.5,0.1v49.9
		C1860,842.3,1860.2,842.4,1860.5,842.4z"/>
	<path class="st10" d="M1860.5,902.4h89c0.3,0,0.5,0,0.5-0.1v-49.9c0,0-0.2-0.1-0.5-0.1h-89c-0.3,0-0.5,0-0.5,0.1v49.9
		C1860,902.3,1860.2,902.4,1860.5,902.4z"/>
	<path class="st10" d="M1860.5,962.4h89c0.3,0,0.5,0,0.5-0.1v-49.9c0,0-0.2-0.1-0.5-0.1h-89c-0.3,0-0.5,0-0.5,0.1v49.9
		C1860,962.3,1860.2,962.4,1860.5,962.4z"/>
	<path class="st10" d="M1860.5,1022.4h89c0.3,0,0.5,0,0.5-0.1v-49.9c0,0-0.2-0.1-0.5-0.1h-89c-0.3,0-0.5,0-0.5,0.1v49.9
		C1860,1022.4,1860.2,1022.4,1860.5,1022.4z"/>
	<path class="st10" d="M1860.5,1082.4h89c0.3,0,0.5,0,0.5-0.1v-49.9c0,0-0.2-0.1-0.5-0.1h-89c-0.3,0-0.5,0-0.5,0.1v49.9
		C1860,1082.4,1860.2,1082.4,1860.5,1082.4z"/>
	<path class="st10" d="M1860.5,1142.4h89c0.3,0,0.5,0,0.5-0.1v-49.9c0,0-0.2-0.1-0.5-0.1h-89c-0.3,0-0.5,0-0.5,0.1v49.9
		C1860,1142.4,1860.2,1142.4,1860.5,1142.4z"/>
	<path class="st10" d="M1860.5,1202.4h89c0.3,0,0.5,0,0.5-0.1v-49.9c0,0-0.2-0.1-0.5-0.1h-89c-0.3,0-0.5,0-0.5,0.1v49.9
		C1860,1202.4,1860.2,1202.4,1860.5,1202.4z"/>
	<path class="st10" d="M1860.5,1262.4h89c0.3,0,0.5,0,0.5-0.1v-49.9c0,0-0.2-0.1-0.5-0.1h-89c-0.3,0-0.5,0-0.5,0.1v49.9
		C1860,1262.4,1860.2,1262.4,1860.5,1262.4z"/>
	<path class="st11" d="M1960.5,662.4h89c0.3,0,0.5,0,0.5-0.1v-49.9c0,0-0.2-0.1-0.5-0.1h-89c-0.3,0-0.5,0-0.5,0.1v49.9
		C1960,662.3,1960.2,662.4,1960.5,662.4z"/>
	<path class="st11" d="M1960.5,722.4h89c0.3,0,0.5,0,0.5-0.1v-49.9c0,0-0.2-0.1-0.5-0.1h-89c-0.3,0-0.5,0-0.5,0.1v49.9
		C1960,722.3,1960.2,722.4,1960.5,722.4z"/>
	<path class="st11" d="M1960.5,782.4h89c0.3,0,0.5,0,0.5-0.1v-49.9c0,0-0.2-0.1-0.5-0.1h-89c-0.3,0-0.5,0-0.5,0.1v49.9
		C1960,782.3,1960.2,782.4,1960.5,782.4z"/>
	<path class="st11" d="M1960.5,842.4h89c0.3,0,0.5,0,0.5-0.1v-49.9c0,0-0.2-0.1-0.5-0.1h-89c-0.3,0-0.5,0-0.5,0.1v49.9
		C1960,842.3,1960.2,842.4,1960.5,842.4z"/>
	<path class="st11" d="M1960.5,902.4h89c0.3,0,0.5,0,0.5-0.1v-49.9c0,0-0.2-0.1-0.5-0.1h-89c-0.3,0-0.5,0-0.5,0.1v49.9
		C1960,902.3,1960.2,902.4,1960.5,902.4z"/>
	<path class="st11" d="M1960.5,962.4h89c0.3,0,0.5,0,0.5-0.1v-49.9c0,0-0.2-0.1-0.5-0.1h-89c-0.3,0-0.5,0-0.5,0.1v49.9
		C1960,962.3,1960.2,962.4,1960.5,962.4z"/>
	<path class="st11" d="M1960.5,1022.4h89c0.3,0,0.5,0,0.5-0.1v-49.9c0,0-0.2-0.1-0.5-0.1h-89c-0.3,0-0.5,0-0.5,0.1v49.9
		C1960,1022.4,1960.2,1022.4,1960.5,1022.4z"/>
	<path class="st11" d="M1960.5,1082.4h89c0.3,0,0.5,0,0.5-0.1v-49.9c0,0-0.2-0.1-0.5-0.1h-89c-0.3,0-0.5,0-0.5,0.1v49.9
		C1960,1082.4,1960.2,1082.4,1960.5,1082.4z"/>
	<path class="st12" d="M2060.5,662.4h89c0.3,0,0.5,0,0.5-0.1v-49.9c0,0-0.2-0.1-0.5-0.1h-89c-0.3,0-0.5,0-0.5,0.1v49.9
		C2060,662.3,2060.2,662.4,2060.5,662.4z"/>
	<path class="st12" d="M2060.5,722.4h89c0.3,0,0.5,0,0.5-0.1v-49.9c0,0-0.2-0.1-0.5-0.1h-89c-0.3,0-0.5,0-0.5,0.1v49.9
		C2060,722.3,2060.2,722.4,2060.5,722.4z"/>
	<path class="st12" d="M2060.5,782.4h89c0.3,0,0.5,0,0.5-0.1v-49.9c0,0-0.2-0.1-0.5-0.1h-89c-0.3,0-0.5,0-0.5,0.1v49.9
		C2060,782.3,2060.2,782.4,2060.5,782.4z"/>
	<path class="st12" d="M2060.5,842.4h89c0.3,0,0.5,0,0.5-0.1v-49.9c0,0-0.2-0.1-0.5-0.1h-89c-0.3,0-0.5,0-0.5,0.1v49.9
		C2060,842.3,2060.2,842.4,2060.5,842.4z"/>
	<path class="st12" d="M2060.5,902.4h89c0.3,0,0.5,0,0.5-0.1v-49.9c0,0-0.2-0.1-0.5-0.1h-89c-0.3,0-0.5,0-0.5,0.1v49.9
		C2060,902.3,2060.2,902.4,2060.5,902.4z"/>
	<path class="st12" d="M2060.5,962.4h89c0.3,0,0.5,0,0.5-0.1v-49.9c0,0-0.2-0.1-0.5-0.1h-89c-0.3,0-0.5,0-0.5,0.1v49.9
		C2060,962.3,2060.2,962.4,2060.5,962.4z"/>
	<path class="st12" d="M2060.5,1022.4h89c0.3,0,0.5,0,0.5-0.1v-49.9c0,0-0.2-0.1-0.5-0.1h-89c-0.3,0-0.5,0-0.5,0.1v49.9
		C2060,1022.4,2060.2,1022.4,2060.5,1022.4z"/>
	<path class="st12" d="M2060.5,1082.4h89c0.3,0,0.5,0,0.5-0.1v-49.9c0,0-0.2-0.1-0.5-0.1h-89c-0.3,0-0.5,0-0.5,0.1v49.9
		C2060,1082.4,2060.2,1082.4,2060.5,1082.4z"/>
	<path class="st12" d="M2060.5,1142.4h89c0.3,0,0.5,0,0.5-0.1v-49.9c0,0-0.2-0.1-0.5-0.1h-89c-0.3,0-0.5,0-0.5,0.1v49.9
		C2060,1142.4,2060.2,1142.4,2060.5,1142.4z"/>
	<path class="st12" d="M2060.5,1202.4h89c0.3,0,0.5,0,0.5-0.1v-49.9c0,0-0.2-0.1-0.5-0.1h-89c-0.3,0-0.5,0-0.5,0.1v49.9
		C2060,1202.4,2060.2,1202.4,2060.5,1202.4z"/>
	<path class="st13" d="M2160.5,662.4h89c0.3,0,0.5,0,0.5-0.1v-49.9c0,0-0.2-0.1-0.5-0.1h-89c-0.3,0-0.5,0-0.5,0.1v49.9
		C2160,662.3,2160.2,662.4,2160.5,662.4z"/>
	<path class="st13" d="M2160.5,722.4h89c0.3,0,0.5,0,0.5-0.1v-49.9c0,0-0.2-0.1-0.5-0.1h-89c-0.3,0-0.5,0-0.5,0.1v49.9
		C2160,722.3,2160.2,722.4,2160.5,722.4z"/>
	<path class="st13" d="M2160.5,782.4h89c0.3,0,0.5,0,0.5-0.1v-49.9c0,0-0.2-0.1-0.5-0.1h-89c-0.3,0-0.5,0-0.5,0.1v49.9
		C2160,782.3,2160.2,782.4,2160.5,782.4z"/>
	<path class="st13" d="M2160.5,842.4h89c0.3,0,0.5,0,0.5-0.1v-49.9c0,0-0.2-0.1-0.5-0.1h-89c-0.3,0-0.5,0-0.5,0.1v49.9
		C2160,842.3,2160.2,842.4,2160.5,842.4z"/>
	<path class="st13" d="M2160.5,902.4h89c0.3,0,0.5,0,0.5-0.1v-49.9c0,0-0.2-0.1-0.5-0.1h-89c-0.3,0-0.5,0-0.5,0.1v49.9
		C2160,902.3,2160.2,902.4,2160.5,902.4z"/>
	<path class="st13" d="M2160.5,962.4h89c0.3,0,0.5,0,0.5-0.1v-49.9c0,0-0.2-0.1-0.5-0.1h-89c-0.3,0-0.5,0-0.5,0.1v49.9
		C2160,962.3,2160.2,962.4,2160.5,962.4z"/>
	<path class="st13" d="M2160.5,1022.4h89c0.3,0,0.5,0,0.5-0.1v-49.9c0,0-0.2-0.1-0.5-0.1h-89c-0.3,0-0.5,0-0.5,0.1v49.9
		C2160,1022.4,2160.2,1022.4,2160.5,1022.4z"/>
	<path class="st13" d="M2160.5,1082.4h89c0.3,0,0.5,0,0.5-0.1v-49.9c0,0-0.2-0.1-0.5-0.1h-89c-0.3,0-0.5,0-0.5,0.1v49.9
		C2160,1082.4,2160.2,1082.4,2160.5,1082.4z"/>
	<path class="st13" d="M2160.5,1142.4h89c0.3,0,0.5,0,0.5-0.1v-49.9c0,0-0.2-0.1-0.5-0.1h-89c-0.3,0-0.5,0-0.5,0.1v49.9
		C2160,1142.4,2160.2,1142.4,2160.5,1142.4z"/>
	<path class="st13" d="M2160.5,1202.4h89c0.3,0,0.5,0,0.5-0.1v-49.9c0,0-0.2-0.1-0.5-0.1h-89c-0.3,0-0.5,0-0.5,0.1v49.9
		C2160,1202.4,2160.2,1202.4,2160.5,1202.4z"/>
	<path class="st13" d="M2160.5,1262.4h89c0.3,0,0.5,0,0.5-0.1v-49.9c0,0-0.2-0.1-0.5-0.1h-89c-0.3,0-0.5,0-0.5,0.1v49.9
		C2160,1262.4,2160.2,1262.4,2160.5,1262.4z"/>
	<path class="st13" d="M2160.5,1322.4h89c0.3,0,0.5,0,0.5-0.1v-49.9c0,0-0.2-0.1-0.5-0.1h-89c-0.3,0-0.5,0-0.5,0.1v49.9
		C2160,1322.4,2160.2,1322.4,2160.5,1322.4z"/>
	<path class="st14" d="M2260.5,662.4h89c0.3,0,0.5,0,0.5-0.1v-49.9c0,0-0.2-0.1-0.5-0.1h-89c-0.3,0-0.5,0-0.5,0.1v49.9
		C2260,662.3,2260.2,662.4,2260.5,662.4z"/>
	<path class="st14" d="M2260.5,722.4h89c0.3,0,0.5,0,0.5-0.1v-49.9c0,0-0.2-0.1-0.5-0.1h-89c-0.3,0-0.5,0-0.5,0.1v49.9
		C2260,722.3,2260.2,722.4,2260.5,722.4z"/>
	<path class="st14" d="M2260.5,782.4h89c0.3,0,0.5,0,0.5-0.1v-49.9c0,0-0.2-0.1-0.5-0.1h-89c-0.3,0-0.5,0-0.5,0.1v49.9
		C2260,782.3,2260.2,782.4,2260.5,782.4z"/>
	<path class="st14" d="M2260.5,842.4h89c0.3,0,0.5,0,0.5-0.1v-49.9c0,0-0.2-0.1-0.5-0.1h-89c-0.3,0-0.5,0-0.5,0.1v49.9
		C2260,842.3,2260.2,842.4,2260.5,842.4z"/>
	<path class="st14" d="M2260.5,902.4h89c0.3,0,0.5,0,0.5-0.1v-49.9c0,0-0.2-0.1-0.5-0.1h-89c-0.3,0-0.5,0-0.5,0.1v49.9
		C2260,902.3,2260.2,902.4,2260.5,902.4z"/>
	<path class="st14" d="M2260.5,962.4h89c0.3,0,0.5,0,0.5-0.1v-49.9c0,0-0.2-0.1-0.5-0.1h-89c-0.3,0-0.5,0-0.5,0.1v49.9
		C2260,962.3,2260.2,962.4,2260.5,962.4z"/>
	<path class="st14" d="M2260.5,1022.4h89c0.3,0,0.5,0,0.5-0.1v-49.9c0,0-0.2-0.1-0.5-0.1h-89c-0.3,0-0.5,0-0.5,0.1v49.9
		C2260,1022.4,2260.2,1022.4,2260.5,1022.4z"/>
	<path class="st14" d="M2260.5,1082.4h89c0.3,0,0.5,0,0.5-0.1v-49.9c0,0-0.2-0.1-0.5-0.1h-89c-0.3,0-0.5,0-0.5,0.1v49.9
		C2260,1082.4,2260.2,1082.4,2260.5,1082.4z"/>
	<path class="st14" d="M2260.5,1142.4h89c0.3,0,0.5,0,0.5-0.1v-49.9c0,0-0.2-0.1-0.5-0.1h-89c-0.3,0-0.5,0-0.5,0.1v49.9
		C2260,1142.4,2260.2,1142.4,2260.5,1142.4z"/>
	<path class="st15" d="M2360.5,662.4h89c0.3,0,0.5,0,0.5-0.1v-49.9c0,0-0.2-0.1-0.5-0.1h-89c-0.3,0-0.5,0-0.5,0.1v49.9
		C2360,662.3,2360.2,662.4,2360.5,662.4z"/>
	<path class="st15" d="M2360.5,722.4h89c0.3,0,0.5,0,0.5-0.1v-49.9c0,0-0.2-0.1-0.5-0.1h-89c-0.3,0-0.5,0-0.5,0.1v49.9
		C2360,722.3,2360.2,722.4,2360.5,722.4z"/>
	<path class="st15" d="M2360.5,782.4h89c0.3,0,0.5,0,0.5-0.1v-49.9c0,0-0.2-0.1-0.5-0.1h-89c-0.3,0-0.5,0-0.5,0.1v49.9
		C2360,782.3,2360.2,782.4,2360.5,782.4z"/>
	<path class="st15" d="M2360.5,842.4h89c0.3,0,0.5,0,0.5-0.1v-49.9c0,0-0.2-0.1-0.5-0.1h-89c-0.3,0-0.5,0-0.5,0.1v49.9
		C2360,842.3,2360.2,842.4,2360.5,842.4z"/>
	<path class="st15" d="M2360.5,902.4h89c0.3,0,0.5,0,0.5-0.1v-49.9c0,0-0.2-0.1-0.5-0.1h-89c-0.3,0-0.5,0-0.5,0.1v49.9
		C2360,902.3,2360.2,902.4,2360.5,902.4z"/>
	<path class="st15" d="M2360.5,962.4h89c0.3,0,0.5,0,0.5-0.1v-49.9c0,0-0.2-0.1-0.5-0.1h-89c-0.3,0-0.5,0-0.5,0.1v49.9
		C2360,962.3,2360.2,962.4,2360.5,962.4z"/>
	<path class="st15" d="M2360.5,1022.4h89c0.3,0,0.5,0,0.5-0.1v-49.9c0,0-0.2-0.1-0.5-0.1h-89c-0.3,0-0.5,0-0.5,0.1v49.9
		C2360,1022.4,2360.2,1022.4,2360.5,1022.4z"/>
	<path class="st15" d="M2360.5,1082.4h89c0.3,0,0.5,0,0.5-0.1v-49.9c0,0-0.2-0.1-0.5-0.1h-89c-0.3,0-0.5,0-0.5,0.1v49.9
		C2360,1082.4,2360.2,1082.4,2360.5,1082.4z"/>
	<path class="st15" d="M2360.5,1142.4h89c0.3,0,0.5,0,0.5-0.1v-49.9c0,0-0.2-0.1-0.5-0.1h-89c-0.3,0-0.5,0-0.5,0.1v49.9
		C2360,1142.4,2360.2,1142.4,2360.5,1142.4z"/>
	<path class="st15" d="M2360.5,1202.4h89c0.3,0,0.5,0,0.5-0.1v-49.9c0,0-0.2-0.1-0.5-0.1h-89c-0.3,0-0.5,0-0.5,0.1v49.9
		C2360,1202.4,2360.2,1202.4,2360.5,1202.4z"/>
	<path class="st16" d="M2460.5,662.4h89c0.3,0,0.5,0,0.5-0.1v-49.9c0,0-0.2-0.1-0.5-0.1h-89c-0.3,0-0.5,0-0.5,0.1v49.9
		C2460,662.3,2460.2,662.4,2460.5,662.4z"/>
	<path class="st16" d="M2460.5,722.4h89c0.3,0,0.5,0,0.5-0.1v-49.9c0,0-0.2-0.1-0.5-0.1h-89c-0.3,0-0.5,0-0.5,0.1v49.9
		C2460,722.3,2460.2,722.4,2460.5,722.4z"/>
	<path class="st16" d="M2460.5,782.4h89c0.3,0,0.5,0,0.5-0.1v-49.9c0,0-0.2-0.1-0.5-0.1h-89c-0.3,0-0.5,0-0.5,0.1v49.9
		C2460,782.3,2460.2,782.4,2460.5,782.4z"/>
	<path class="st16" d="M2460.5,842.4h89c0.3,0,0.5,0,0.5-0.1v-49.9c0,0-0.2-0.1-0.5-0.1h-89c-0.3,0-0.5,0-0.5,0.1v49.9
		C2460,842.3,2460.2,842.4,2460.5,842.4z"/>
	<path class="st16" d="M2460.5,902.4h89c0.3,0,0.5,0,0.5-0.1v-49.9c0,0-0.2-0.1-0.5-0.1h-89c-0.3,0-0.5,0-0.5,0.1v49.9
		C2460,902.3,2460.2,902.4,2460.5,902.4z"/>
	<path class="st16" d="M2460.5,962.4h89c0.3,0,0.5,0,0.5-0.1v-49.9c0,0-0.2-0.1-0.5-0.1h-89c-0.3,0-0.5,0-0.5,0.1v49.9
		C2460,962.3,2460.2,962.4,2460.5,962.4z"/>
	<path class="st16" d="M2460.5,1022.4h89c0.3,0,0.5,0,0.5-0.1v-49.9c0,0-0.2-0.1-0.5-0.1h-89c-0.3,0-0.5,0-0.5,0.1v49.9
		C2460,1022.4,2460.2,1022.4,2460.5,1022.4z"/>
	<path class="st16" d="M2460.5,1082.4h89c0.3,0,0.5,0,0.5-0.1v-49.9c0,0-0.2-0.1-0.5-0.1h-89c-0.3,0-0.5,0-0.5,0.1v49.9
		C2460,1082.4,2460.2,1082.4,2460.5,1082.4z"/>
	<path class="st16" d="M2460.5,1142.4h89c0.3,0,0.5,0,0.5-0.1v-49.9c0,0-0.2-0.1-0.5-0.1h-89c-0.3,0-0.5,0-0.5,0.1v49.9
		C2460,1142.4,2460.2,1142.4,2460.5,1142.4z"/>
	<path class="st16" d="M2460.5,1202.4h89c0.3,0,0.5,0,0.5-0.1v-49.9c0,0-0.2-0.1-0.5-0.1h-89c-0.3,0-0.5,0-0.5,0.1v49.9
		C2460,1202.4,2460.2,1202.4,2460.5,1202.4z"/>
	<path class="st16" d="M2460.5,1262.4h89c0.3,0,0.5,0,0.5-0.1v-49.9c0,0-0.2-0.1-0.5-0.1h-89c-0.3,0-0.5,0-0.5,0.1v49.9
		C2460,1262.4,2460.2,1262.4,2460.5,1262.4z"/>
	<path class="st16" d="M2460.5,1322.4h89c0.3,0,0.5,0,0.5-0.1v-49.9c0,0-0.2-0.1-0.5-0.1h-89c-0.3,0-0.5,0-0.5,0.1v49.9
		C2460,1322.4,2460.2,1322.4,2460.5,1322.4z"/>
	<path class="st17" d="M2560.5,662.4h89c0.3,0,0.5,0,0.5-0.1v-49.9c0,0-0.2-0.1-0.5-0.1h-89c-0.3,0-0.5,0-0.5,0.1v49.9
		C2560,662.3,2560.2,662.4,2560.5,662.4z"/>
	<path class="st17" d="M2560.5,722.4h89c0.3,0,0.5,0,0.5-0.1v-49.9c0,0-0.2-0.1-0.5-0.1h-89c-0.3,0-0.5,0-0.5,0.1v49.9
		C2560,722.3,2560.2,722.4,2560.5,722.4z"/>
	<path class="st17" d="M2560.5,782.4h89c0.3,0,0.5,0,0.5-0.1v-49.9c0,0-0.2-0.1-0.5-0.1h-89c-0.3,0-0.5,0-0.5,0.1v49.9
		C2560,782.3,2560.2,782.4,2560.5,782.4z"/>
	<path class="st17" d="M2560.5,842.4h89c0.3,0,0.5,0,0.5-0.1v-49.9c0,0-0.2-0.1-0.5-0.1h-89c-0.3,0-0.5,0-0.5,0.1v49.9
		C2560,842.3,2560.2,842.4,2560.5,842.4z"/>
	<path class="st17" d="M2560.5,902.4h89c0.3,0,0.5,0,0.5-0.1v-49.9c0,0-0.2-0.1-0.5-0.1h-89c-0.3,0-0.5,0-0.5,0.1v49.9
		C2560,902.3,2560.2,902.4,2560.5,902.4z"/>
	<path class="st17" d="M2560.5,962.4h89c0.3,0,0.5,0,0.5-0.1v-49.9c0,0-0.2-0.1-0.5-0.1h-89c-0.3,0-0.5,0-0.5,0.1v49.9
		C2560,962.3,2560.2,962.4,2560.5,962.4z"/>
	<path class="st17" d="M2560.5,1022.4h89c0.3,0,0.5,0,0.5-0.1v-49.9c0,0-0.2-0.1-0.5-0.1h-89c-0.3,0-0.5,0-0.5,0.1v49.9
		C2560,1022.4,2560.2,1022.4,2560.5,1022.4z"/>
	<path class="st17" d="M2560.5,1082.4h89c0.3,0,0.5,0,0.5-0.1v-49.9c0,0-0.2-0.1-0.5-0.1h-89c-0.3,0-0.5,0-0.5,0.1v49.9
		C2560,1082.4,2560.2,1082.4,2560.5,1082.4z"/>
	<path class="st17" d="M2560.5,1142.4h89c0.3,0,0.5,0,0.5-0.1v-49.9c0,0-0.2-0.1-0.5-0.1h-89c-0.3,0-0.5,0-0.5,0.1v49.9
		C2560,1142.4,2560.2,1142.4,2560.5,1142.4z"/>
	<path class="st17" d="M2560.5,1202.4h89c0.3,0,0.5,0,0.5-0.1v-49.9c0,0-0.2-0.1-0.5-0.1h-89c-0.3,0-0.5,0-0.5,0.1v49.9
		C2560,1202.4,2560.2,1202.4,2560.5,1202.4z"/>
	<path class="st17" d="M2560.5,1262.4h89c0.3,0,0.5,0,0.5-0.1v-49.9c0,0-0.2-0.1-0.5-0.1h-89c-0.3,0-0.5,0-0.5,0.1v49.9
		C2560,1262.4,2560.2,1262.4,2560.5,1262.4z"/>
	<path class="st18" d="M2660.5,662.4h89c0.3,0,0.5,0,0.5-0.1v-49.9c0,0-0.2-0.1-0.5-0.1h-89c-0.3,0-0.5,0-0.5,0.1v49.9
		C2660,662.3,2660.2,662.4,2660.5,662.4z"/>
	<path class="st18" d="M2660.5,722.4h89c0.3,0,0.5,0,0.5-0.1v-49.9c0,0-0.2-0.1-0.5-0.1h-89c-0.3,0-0.5,0-0.5,0.1v49.9
		C2660,722.3,2660.2,722.4,2660.5,722.4z"/>
	<path class="st18" d="M2660.5,782.4h89c0.3,0,0.5,0,0.5-0.1v-49.9c0,0-0.2-0.1-0.5-0.1h-89c-0.3,0-0.5,0-0.5,0.1v49.9
		C2660,782.3,2660.2,782.4,2660.5,782.4z"/>
	<path class="st18" d="M2660.5,842.4h89c0.3,0,0.5,0,0.5-0.1v-49.9c0,0-0.2-0.1-0.5-0.1h-89c-0.3,0-0.5,0-0.5,0.1v49.9
		C2660,842.3,2660.2,842.4,2660.5,842.4z"/>
	<path class="st18" d="M2660.5,902.4h89c0.3,0,0.5,0,0.5-0.1v-49.9c0,0-0.2-0.1-0.5-0.1h-89c-0.3,0-0.5,0-0.5,0.1v49.9
		C2660,902.3,2660.2,902.4,2660.5,902.4z"/>
	<path class="st18" d="M2660.5,962.4h89c0.3,0,0.5,0,0.5-0.1v-49.9c0,0-0.2-0.1-0.5-0.1h-89c-0.3,0-0.5,0-0.5,0.1v49.9
		C2660,962.3,2660.2,962.4,2660.5,962.4z"/>
	<path class="st18" d="M2660.5,1022.4h89c0.3,0,0.5,0,0.5-0.1v-49.9c0,0-0.2-0.1-0.5-0.1h-89c-0.3,0-0.5,0-0.5,0.1v49.9
		C2660,1022.4,2660.2,1022.4,2660.5,1022.4z"/>
	<path class="st18" d="M2660.5,1082.4h89c0.3,0,0.5,0,0.5-0.1v-49.9c0,0-0.2-0.1-0.5-0.1h-89c-0.3,0-0.5,0-0.5,0.1v49.9
		C2660,1082.4,2660.2,1082.4,2660.5,1082.4z"/>
	<path class="st18" d="M2660.5,1142.4h89c0.3,0,0.5,0,0.5-0.1v-49.9c0,0-0.2-0.1-0.5-0.1h-89c-0.3,0-0.5,0-0.5,0.1v49.9
		C2660,1142.4,2660.2,1142.4,2660.5,1142.4z"/>
	<path class="st18" d="M2660.5,1202.4h89c0.3,0,0.5,0,0.5-0.1v-49.9c0,0-0.2-0.1-0.5-0.1h-89c-0.3,0-0.5,0-0.5,0.1v49.9
		C2660,1202.4,2660.2,1202.4,2660.5,1202.4z"/>
	<path class="st19" d="M2760.5,662.4h89c0.3,0,0.5,0,0.5-0.1v-49.9c0,0-0.2-0.1-0.5-0.1h-89c-0.3,0-0.5,0-0.5,0.1v49.9
		C2760,662.3,2760.2,662.4,2760.5,662.4z"/>
	<path class="st19" d="M2760.5,722.4h89c0.3,0,0.5,0,0.5-0.1v-49.9c0,0-0.2-0.1-0.5-0.1h-89c-0.3,0-0.5,0-0.5,0.1v49.9
		C2760,722.3,2760.2,722.4,2760.5,722.4z"/>
	<path class="st19" d="M2760.5,782.4h89c0.3,0,0.5,0,0.5-0.1v-49.9c0,0-0.2-0.1-0.5-0.1h-89c-0.3,0-0.5,0-0.5,0.1v49.9
		C2760,782.3,2760.2,782.4,2760.5,782.4z"/>
	<path class="st19" d="M2760.5,842.4h89c0.3,0,0.5,0,0.5-0.1v-49.9c0,0-0.2-0.1-0.5-0.1h-89c-0.3,0-0.5,0-0.5,0.1v49.9
		C2760,842.3,2760.2,842.4,2760.5,842.4z"/>
	<path class="st19" d="M2760.5,902.4h89c0.3,0,0.5,0,0.5-0.1v-49.9c0,0-0.2-0.1-0.5-0.1h-89c-0.3,0-0.5,0-0.5,0.1v49.9
		C2760,902.3,2760.2,902.4,2760.5,902.4z"/>
	<path class="st19" d="M2760.5,962.4h89c0.3,0,0.5,0,0.5-0.1v-49.9c0,0-0.2-0.1-0.5-0.1h-89c-0.3,0-0.5,0-0.5,0.1v49.9
		C2760,962.3,2760.2,962.4,2760.5,962.4z"/>
	<path class="st19" d="M2760.5,1022.4h89c0.3,0,0.5,0,0.5-0.1v-49.9c0,0-0.2-0.1-0.5-0.1h-89c-0.3,0-0.5,0-0.5,0.1v49.9
		C2760,1022.4,2760.2,1022.4,2760.5,1022.4z"/>
	<path class="st19" d="M2760.5,1082.4h89c0.3,0,0.5,0,0.5-0.1v-49.9c0,0-0.2-0.1-0.5-0.1h-89c-0.3,0-0.5,0-0.5,0.1v49.9
		C2760,1082.4,2760.2,1082.4,2760.5,1082.4z"/>
	<path class="st19" d="M2760.5,1142.4h89c0.3,0,0.5,0,0.5-0.1v-49.9c0,0-0.2-0.1-0.5-0.1h-89c-0.3,0-0.5,0-0.5,0.1v49.9
		C2760,1142.4,2760.2,1142.4,2760.5,1142.4z"/>
	<path class="st20" d="M2860.5,662.4h89c0.3,0,0.5,0,0.5-0.1v-49.9c0,0-0.2-0.1-0.5-0.1h-89c-0.3,0-0.5,0-0.5,0.1v49.9
		C2860,662.3,2860.2,662.4,2860.5,662.4z"/>
	<path class="st20" d="M2860.5,722.4h89c0.3,0,0.5,0,0.5-0.1v-49.9c0,0-0.2-0.1-0.5-0.1h-89c-0.3,0-0.5,0-0.5,0.1v49.9
		C2860,722.3,2860.2,722.4,2860.5,722.4z"/>
	<path class="st20" d="M2860.5,782.4h89c0.3,0,0.5,0,0.5-0.1v-49.9c0,0-0.2-0.1-0.5-0.1h-89c-0.3,0-0.5,0-0.5,0.1v49.9
		C2860,782.3,2860.2,782.4,2860.5,782.4z"/>
	<path class="st20" d="M2860.5,842.4h89c0.3,0,0.5,0,0.5-0.1v-49.9c0,0-0.2-0.1-0.5-0.1h-89c-0.3,0-0.5,0-0.5,0.1v49.9
		C2860,842.3,2860.2,842.4,2860.5,842.4z"/>
	<path class="st20" d="M2860.5,902.4h89c0.3,0,0.5,0,0.5-0.1v-49.9c0,0-0.2-0.1-0.5-0.1h-89c-0.3,0-0.5,0-0.5,0.1v49.9
		C2860,902.3,2860.2,902.4,2860.5,902.4z"/>
	<path class="st20" d="M2860.5,962.4h89c0.3,0,0.5,0,0.5-0.1v-49.9c0,0-0.2-0.1-0.5-0.1h-89c-0.3,0-0.5,0-0.5,0.1v49.9
		C2860,962.3,2860.2,962.4,2860.5,962.4z"/>
	<path class="st20" d="M2860.5,1022.4h89c0.3,0,0.5,0,0.5-0.1v-49.9c0,0-0.2-0.1-0.5-0.1h-89c-0.3,0-0.5,0-0.5,0.1v49.9
		C2860,1022.4,2860.2,1022.4,2860.5,1022.4z"/>
	<path class="st20" d="M2860.5,1082.4h89c0.3,0,0.5,0,0.5-0.1v-49.9c0,0-0.2-0.1-0.5-0.1h-89c-0.3,0-0.5,0-0.5,0.1v49.9
		C2860,1082.4,2860.2,1082.4,2860.5,1082.4z"/>
	<path class="st20" d="M2860.5,1142.4h89c0.3,0,0.5,0,0.5-0.1v-49.9c0,0-0.2-0.1-0.5-0.1h-89c-0.3,0-0.5,0-0.5,0.1v49.9
		C2860,1142.4,2860.2,1142.4,2860.5,1142.4z"/>
	<path class="st20" d="M2860.5,1202.4h89c0.3,0,0.5,0,0.5-0.1v-49.9c0,0-0.2-0.1-0.5-0.1h-89c-0.3,0-0.5,0-0.5,0.1v49.9
		C2860,1202.4,2860.2,1202.4,2860.5,1202.4z"/>
	<path class="st21" d="M2960.5,662.4h89c0.3,0,0.5,0,0.5-0.1v-49.9c0,0-0.2-0.1-0.5-0.1h-89c-0.3,0-0.5,0-0.5,0.1v49.9
		C2960,662.3,2960.2,662.4,2960.5,662.4z"/>
	<path class="st21" d="M2960.5,722.4h89c0.3,0,0.5,0,0.5-0.1v-49.9c0,0-0.2-0.1-0.5-0.1h-89c-0.3,0-0.5,0-0.5,0.1v49.9
		C2960,722.3,2960.2,722.4,2960.5,722.4z"/>
	<path class="st21" d="M2960.5,782.4h89c0.3,0,0.5,0,0.5-0.1v-49.9c0,0-0.2-0.1-0.5-0.1h-89c-0.3,0-0.5,0-0.5,0.1v49.9
		C2960,782.3,2960.2,782.4,2960.5,782.4z"/>
	<path class="st21" d="M2960.5,842.4h89c0.3,0,0.5,0,0.5-0.1v-49.9c0,0-0.2-0.1-0.5-0.1h-89c-0.3,0-0.5,0-0.5,0.1v49.9
		C2960,842.3,2960.2,842.4,2960.5,842.4z"/>
	<path class="st21" d="M2960.5,902.4h89c0.3,0,0.5,0,0.5-0.1v-49.9c0,0-0.2-0.1-0.5-0.1h-89c-0.3,0-0.5,0-0.5,0.1v49.9
		C2960,902.3,2960.2,902.4,2960.5,902.4z"/>
	<path class="st21" d="M2960.5,962.4h89c0.3,0,0.5,0,0.5-0.1v-49.9c0,0-0.2-0.1-0.5-0.1h-89c-0.3,0-0.5,0-0.5,0.1v49.9
		C2960,962.3,2960.2,962.4,2960.5,962.4z"/>
	<path class="st21" d="M2960.5,1022.4h89c0.3,0,0.5,0,0.5-0.1v-49.9c0,0-0.2-0.1-0.5-0.1h-89c-0.3,0-0.5,0-0.5,0.1v49.9
		C2960,1022.4,2960.2,1022.4,2960.5,1022.4z"/>
	<path class="st21" d="M2960.5,1082.4h89c0.3,0,0.5,0,0.5-0.1v-49.9c0,0-0.2-0.1-0.5-0.1h-89c-0.3,0-0.5,0-0.5,0.1v49.9
		C2960,1082.4,2960.2,1082.4,2960.5,1082.4z"/>
	<path class="st21" d="M2960.5,1142.4h89c0.3,0,0.5,0,0.5-0.1v-49.9c0,0-0.2-0.1-0.5-0.1h-89c-0.3,0-0.5,0-0.5,0.1v49.9
		C2960,1142.4,2960.2,1142.4,2960.5,1142.4z"/>
	<path class="st21" d="M2960.5,1202.4h89c0.3,0,0.5,0,0.5-0.1v-49.9c0,0-0.2-0.1-0.5-0.1h-89c-0.3,0-0.5,0-0.5,0.1v49.9
		C2960,1202.4,2960.2,1202.4,2960.5,1202.4z"/>
	<path class="st21" d="M2960.5,1262.4h89c0.3,0,0.5,0,0.5-0.1v-49.9c0,0-0.2-0.1-0.5-0.1h-89c-0.3,0-0.5,0-0.5,0.1v49.9
		C2960,1262.4,2960.2,1262.4,2960.5,1262.4z"/>
	<path class="st22" d="M3060.5,662.4h89c0.3,0,0.5,0,0.5-0.1v-49.9c0,0-0.2-0.1-0.5-0.1h-89c-0.3,0-0.5,0-0.5,0.1v49.9
		C3060,662.3,3060.2,662.4,3060.5,662.4z"/>
	<path class="st22" d="M3060.5,722.4h89c0.3,0,0.5,0,0.5-0.1v-49.9c0,0-0.2-0.1-0.5-0.1h-89c-0.3,0-0.5,0-0.5,0.1v49.9
		C3060,722.3,3060.2,722.4,3060.5,722.4z"/>
	<path class="st22" d="M3060.5,782.4h89c0.3,0,0.5,0,0.5-0.1v-49.9c0,0-0.2-0.1-0.5-0.1h-89c-0.3,0-0.5,0-0.5,0.1v49.9
		C3060,782.3,3060.2,782.4,3060.5,782.4z"/>
	<path class="st22" d="M3060.5,842.4h89c0.3,0,0.5,0,0.5-0.1v-49.9c0,0-0.2-0.1-0.5-0.1h-89c-0.3,0-0.5,0-0.5,0.1v49.9
		C3060,842.3,3060.2,842.4,3060.5,842.4z"/>
	<path class="st22" d="M3060.5,902.4h89c0.3,0,0.5,0,0.5-0.1v-49.9c0,0-0.2-0.1-0.5-0.1h-89c-0.3,0-0.5,0-0.5,0.1v49.9
		C3060,902.3,3060.2,902.4,3060.5,902.4z"/>
	<path class="st22" d="M3060.5,962.4h89c0.3,0,0.5,0,0.5-0.1v-49.9c0,0-0.2-0.1-0.5-0.1h-89c-0.3,0-0.5,0-0.5,0.1v49.9
		C3060,962.3,3060.2,962.4,3060.5,962.4z"/>
	<path class="st22" d="M3060.5,1022.4h89c0.3,0,0.5,0,0.5-0.1v-49.9c0,0-0.2-0.1-0.5-0.1h-89c-0.3,0-0.5,0-0.5,0.1v49.9
		C3060,1022.4,3060.2,1022.4,3060.5,1022.4z"/>
	<path class="st22" d="M3060.5,1082.4h89c0.3,0,0.5,0,0.5-0.1v-49.9c0,0-0.2-0.1-0.5-0.1h-89c-0.3,0-0.5,0-0.5,0.1v49.9
		C3060,1082.4,3060.2,1082.4,3060.5,1082.4z"/>
	<path class="st22" d="M3060.5,1142.4h89c0.3,0,0.5,0,0.5-0.1v-49.9c0,0-0.2-0.1-0.5-0.1h-89c-0.3,0-0.5,0-0.5,0.1v49.9
		C3060,1142.4,3060.2,1142.4,3060.5,1142.4z"/>
	<path class="st22" d="M3060.5,1202.4h89c0.3,0,0.5,0,0.5-0.1v-49.9c0,0-0.2-0.1-0.5-0.1h-89c-0.3,0-0.5,0-0.5,0.1v49.9
		C3060,1202.4,3060.2,1202.4,3060.5,1202.4z"/>
	<path class="st22" d="M3060.5,1262.4h89c0.3,0,0.5,0,0.5-0.1v-49.9c0,0-0.2-0.1-0.5-0.1h-89c-0.3,0-0.5,0-0.5,0.1v49.9
		C3060,1262.4,3060.2,1262.4,3060.5,1262.4z"/>
	<path class="st22" d="M3060.5,1322.4h89c0.3,0,0.5,0,0.5-0.1v-49.9c0,0-0.2-0.1-0.5-0.1h-89c-0.3,0-0.5,0-0.5,0.1v49.9
		C3060,1322.4,3060.2,1322.4,3060.5,1322.4z"/>
	<path class="st23" d="M433.5,596.1h3054.9c0.3,0,0.6,0.1,0.6,0.2v926.3c0,0.1-0.3,0.2-0.6,0.2H433.5c-0.3,0-0.6-0.1-0.6-0.2V596.3
		C432.9,596.2,433.2,596.1,433.5,596.1z"/>
	
		<linearGradient id="SVGID_1_" gradientUnits="userSpaceOnUse" x1="2373.0261" y1="-192.8901" x2="2375.8262" y2="184.0099" gradientTransform="matrix(1.2072 0 0 -2.2613 -906.6309 1089.073)">
		<stop  offset="0" style="stop-color:#000000;stop-opacity:0.916"/>
		<stop  offset="1" style="stop-color:#000000"/>
	</linearGradient>
	<path class="st24" d="M445.5-378.2h3041.1c0.3,0,0.6,0.1,0.6,0.1v1899.2c0,0.1-0.3,0.1-0.6,0.1H445.5c-0.3,0-0.6-0.1-0.6-0.1
		c-14.4-677.4-16.5-1316.9,0-1899.2C444.9-378.1,445.2-378.2,445.5-378.2L445.5-378.2z"/>
</g>
</svg>
